%TF.GenerationSoftware,KiCad,Pcbnew,5.1.9-73d0e3b20d~88~ubuntu20.04.1*%
%TF.CreationDate,2021-02-20T23:14:02+01:00*%
%TF.ProjectId,attiny-214-414-814-proto,61747469-6e79-42d3-9231-342d3431342d,rev?*%
%TF.SameCoordinates,Original*%
%TF.FileFunction,Copper,L2,Bot*%
%TF.FilePolarity,Positive*%
%FSLAX46Y46*%
G04 Gerber Fmt 4.6, Leading zero omitted, Abs format (unit mm)*
G04 Created by KiCad (PCBNEW 5.1.9-73d0e3b20d~88~ubuntu20.04.1) date 2021-02-20 23:14:02*
%MOMM*%
%LPD*%
G01*
G04 APERTURE LIST*
%TA.AperFunction,ComponentPad*%
%ADD10O,1.700000X1.700000*%
%TD*%
%TA.AperFunction,ComponentPad*%
%ADD11R,1.700000X1.700000*%
%TD*%
%TA.AperFunction,ComponentPad*%
%ADD12C,1.600000*%
%TD*%
%TA.AperFunction,ComponentPad*%
%ADD13R,1.600000X1.600000*%
%TD*%
%TA.AperFunction,ViaPad*%
%ADD14C,0.900000*%
%TD*%
%TA.AperFunction,Conductor*%
%ADD15C,0.254000*%
%TD*%
%TA.AperFunction,Conductor*%
%ADD16C,0.100000*%
%TD*%
G04 APERTURE END LIST*
D10*
%TO.P,J5,8*%
%TO.N,Net-(J5-Pad8)*%
X119000000Y-93780000D03*
%TO.P,J5,7*%
%TO.N,Net-(J5-Pad7)*%
X119000000Y-91240000D03*
%TO.P,J5,6*%
%TO.N,Net-(J2-Pad3)*%
X119000000Y-88700000D03*
%TO.P,J5,5*%
%TO.N,Net-(J5-Pad5)*%
X119000000Y-86160000D03*
%TO.P,J5,4*%
%TO.N,Net-(J5-Pad4)*%
X119000000Y-83620000D03*
%TO.P,J5,3*%
%TO.N,Net-(J5-Pad3)*%
X119000000Y-81080000D03*
%TO.P,J5,2*%
%TO.N,Net-(C1-Pad1)*%
X119000000Y-78540000D03*
D11*
%TO.P,J5,1*%
%TO.N,GND*%
X119000000Y-76000000D03*
%TD*%
D10*
%TO.P,J4,6*%
%TO.N,Net-(J4-Pad6)*%
X111900000Y-105000000D03*
%TO.P,J4,5*%
%TO.N,Net-(J2-Pad3)*%
X109360000Y-105000000D03*
%TO.P,J4,4*%
%TO.N,Net-(J4-Pad4)*%
X106820000Y-105000000D03*
%TO.P,J4,3*%
%TO.N,Net-(D5-Pad2)*%
X104280000Y-105000000D03*
%TO.P,J4,2*%
%TO.N,Net-(J4-Pad2)*%
X101740000Y-105000000D03*
D11*
%TO.P,J4,1*%
%TO.N,GND*%
X99200000Y-105000000D03*
%TD*%
D10*
%TO.P,J3,8*%
%TO.N,Net-(J3-Pad8)*%
X91000000Y-93980000D03*
%TO.P,J3,7*%
%TO.N,Net-(J3-Pad7)*%
X91000000Y-91440000D03*
%TO.P,J3,6*%
%TO.N,Net-(J3-Pad6)*%
X91000000Y-88900000D03*
%TO.P,J3,5*%
%TO.N,Net-(J3-Pad5)*%
X91000000Y-86360000D03*
%TO.P,J3,4*%
%TO.N,Net-(J3-Pad4)*%
X91000000Y-83820000D03*
%TO.P,J3,3*%
%TO.N,Net-(J3-Pad3)*%
X91000000Y-81280000D03*
%TO.P,J3,2*%
%TO.N,Net-(C1-Pad1)*%
X91000000Y-78740000D03*
D11*
%TO.P,J3,1*%
%TO.N,GND*%
X91000000Y-76200000D03*
%TD*%
D10*
%TO.P,J2,3*%
%TO.N,Net-(J2-Pad3)*%
X91000000Y-99920000D03*
%TO.P,J2,2*%
%TO.N,Net-(C1-Pad1)*%
X91000000Y-102460000D03*
D11*
%TO.P,J2,1*%
%TO.N,GND*%
X91000000Y-105000000D03*
%TD*%
D10*
%TO.P,J1,4*%
%TO.N,GND*%
X108220000Y-63600000D03*
%TO.P,J1,3*%
%TO.N,Net-(C1-Pad1)*%
X105680000Y-63600000D03*
%TO.P,J1,2*%
%TO.N,Net-(D1-Pad2)*%
X103140000Y-63600000D03*
D11*
%TO.P,J1,1*%
%TO.N,GND*%
X100600000Y-63600000D03*
%TD*%
D12*
%TO.P,C3,2*%
%TO.N,GND*%
X113400000Y-73200000D03*
D13*
%TO.P,C3,1*%
%TO.N,Net-(C1-Pad1)*%
X111400000Y-73200000D03*
%TD*%
D12*
%TO.P,C2,2*%
%TO.N,GND*%
X94400000Y-71600000D03*
D13*
%TO.P,C2,1*%
%TO.N,Net-(C2-Pad1)*%
X96400000Y-71600000D03*
%TD*%
D14*
%TO.N,GND*%
X83000000Y-97000000D03*
X82400000Y-75400000D03*
X126800000Y-73200000D03*
X127200000Y-86000000D03*
X127200000Y-96600000D03*
X105600000Y-80000000D03*
X99400000Y-77000000D03*
X117200000Y-68800000D03*
X82800000Y-87800000D03*
%TD*%
D15*
%TO.N,GND*%
X129340001Y-107340000D02*
X80660000Y-107340000D01*
X80660000Y-105850000D01*
X89511928Y-105850000D01*
X89524188Y-105974482D01*
X89560498Y-106094180D01*
X89619463Y-106204494D01*
X89698815Y-106301185D01*
X89795506Y-106380537D01*
X89905820Y-106439502D01*
X90025518Y-106475812D01*
X90150000Y-106488072D01*
X90714250Y-106485000D01*
X90873000Y-106326250D01*
X90873000Y-105127000D01*
X91127000Y-105127000D01*
X91127000Y-106326250D01*
X91285750Y-106485000D01*
X91850000Y-106488072D01*
X91974482Y-106475812D01*
X92094180Y-106439502D01*
X92204494Y-106380537D01*
X92301185Y-106301185D01*
X92380537Y-106204494D01*
X92439502Y-106094180D01*
X92475812Y-105974482D01*
X92488072Y-105850000D01*
X97711928Y-105850000D01*
X97724188Y-105974482D01*
X97760498Y-106094180D01*
X97819463Y-106204494D01*
X97898815Y-106301185D01*
X97995506Y-106380537D01*
X98105820Y-106439502D01*
X98225518Y-106475812D01*
X98350000Y-106488072D01*
X98914250Y-106485000D01*
X99073000Y-106326250D01*
X99073000Y-105127000D01*
X97873750Y-105127000D01*
X97715000Y-105285750D01*
X97711928Y-105850000D01*
X92488072Y-105850000D01*
X92485000Y-105285750D01*
X92326250Y-105127000D01*
X91127000Y-105127000D01*
X90873000Y-105127000D01*
X89673750Y-105127000D01*
X89515000Y-105285750D01*
X89511928Y-105850000D01*
X80660000Y-105850000D01*
X80660000Y-104150000D01*
X89511928Y-104150000D01*
X89515000Y-104714250D01*
X89673750Y-104873000D01*
X90873000Y-104873000D01*
X90873000Y-104853000D01*
X91127000Y-104853000D01*
X91127000Y-104873000D01*
X92326250Y-104873000D01*
X92485000Y-104714250D01*
X92488072Y-104150000D01*
X97711928Y-104150000D01*
X97715000Y-104714250D01*
X97873750Y-104873000D01*
X99073000Y-104873000D01*
X99073000Y-103673750D01*
X99327000Y-103673750D01*
X99327000Y-104873000D01*
X99347000Y-104873000D01*
X99347000Y-105127000D01*
X99327000Y-105127000D01*
X99327000Y-106326250D01*
X99485750Y-106485000D01*
X100050000Y-106488072D01*
X100174482Y-106475812D01*
X100294180Y-106439502D01*
X100404494Y-106380537D01*
X100501185Y-106301185D01*
X100580537Y-106204494D01*
X100639502Y-106094180D01*
X100661513Y-106021620D01*
X100793368Y-106153475D01*
X101036589Y-106315990D01*
X101306842Y-106427932D01*
X101593740Y-106485000D01*
X101886260Y-106485000D01*
X102173158Y-106427932D01*
X102443411Y-106315990D01*
X102686632Y-106153475D01*
X102893475Y-105946632D01*
X103010000Y-105772240D01*
X103126525Y-105946632D01*
X103333368Y-106153475D01*
X103576589Y-106315990D01*
X103846842Y-106427932D01*
X104133740Y-106485000D01*
X104426260Y-106485000D01*
X104713158Y-106427932D01*
X104983411Y-106315990D01*
X105226632Y-106153475D01*
X105433475Y-105946632D01*
X105550000Y-105772240D01*
X105666525Y-105946632D01*
X105873368Y-106153475D01*
X106116589Y-106315990D01*
X106386842Y-106427932D01*
X106673740Y-106485000D01*
X106966260Y-106485000D01*
X107253158Y-106427932D01*
X107523411Y-106315990D01*
X107766632Y-106153475D01*
X107973475Y-105946632D01*
X108090000Y-105772240D01*
X108206525Y-105946632D01*
X108413368Y-106153475D01*
X108656589Y-106315990D01*
X108926842Y-106427932D01*
X109213740Y-106485000D01*
X109506260Y-106485000D01*
X109793158Y-106427932D01*
X110063411Y-106315990D01*
X110306632Y-106153475D01*
X110513475Y-105946632D01*
X110630000Y-105772240D01*
X110746525Y-105946632D01*
X110953368Y-106153475D01*
X111196589Y-106315990D01*
X111466842Y-106427932D01*
X111753740Y-106485000D01*
X112046260Y-106485000D01*
X112333158Y-106427932D01*
X112603411Y-106315990D01*
X112846632Y-106153475D01*
X113053475Y-105946632D01*
X113215990Y-105703411D01*
X113327932Y-105433158D01*
X113385000Y-105146260D01*
X113385000Y-104853740D01*
X113327932Y-104566842D01*
X113215990Y-104296589D01*
X113053475Y-104053368D01*
X112846632Y-103846525D01*
X112603411Y-103684010D01*
X112333158Y-103572068D01*
X112046260Y-103515000D01*
X111753740Y-103515000D01*
X111466842Y-103572068D01*
X111196589Y-103684010D01*
X110953368Y-103846525D01*
X110746525Y-104053368D01*
X110630000Y-104227760D01*
X110513475Y-104053368D01*
X110306632Y-103846525D01*
X110063411Y-103684010D01*
X109793158Y-103572068D01*
X109506260Y-103515000D01*
X109213740Y-103515000D01*
X108926842Y-103572068D01*
X108656589Y-103684010D01*
X108413368Y-103846525D01*
X108206525Y-104053368D01*
X108090000Y-104227760D01*
X107973475Y-104053368D01*
X107766632Y-103846525D01*
X107523411Y-103684010D01*
X107253158Y-103572068D01*
X106966260Y-103515000D01*
X106673740Y-103515000D01*
X106386842Y-103572068D01*
X106116589Y-103684010D01*
X105873368Y-103846525D01*
X105666525Y-104053368D01*
X105550000Y-104227760D01*
X105433475Y-104053368D01*
X105226632Y-103846525D01*
X104983411Y-103684010D01*
X104713158Y-103572068D01*
X104426260Y-103515000D01*
X104133740Y-103515000D01*
X103846842Y-103572068D01*
X103576589Y-103684010D01*
X103333368Y-103846525D01*
X103126525Y-104053368D01*
X103010000Y-104227760D01*
X102893475Y-104053368D01*
X102686632Y-103846525D01*
X102443411Y-103684010D01*
X102173158Y-103572068D01*
X101886260Y-103515000D01*
X101593740Y-103515000D01*
X101306842Y-103572068D01*
X101036589Y-103684010D01*
X100793368Y-103846525D01*
X100661513Y-103978380D01*
X100639502Y-103905820D01*
X100580537Y-103795506D01*
X100501185Y-103698815D01*
X100404494Y-103619463D01*
X100294180Y-103560498D01*
X100174482Y-103524188D01*
X100050000Y-103511928D01*
X99485750Y-103515000D01*
X99327000Y-103673750D01*
X99073000Y-103673750D01*
X98914250Y-103515000D01*
X98350000Y-103511928D01*
X98225518Y-103524188D01*
X98105820Y-103560498D01*
X97995506Y-103619463D01*
X97898815Y-103698815D01*
X97819463Y-103795506D01*
X97760498Y-103905820D01*
X97724188Y-104025518D01*
X97711928Y-104150000D01*
X92488072Y-104150000D01*
X92475812Y-104025518D01*
X92439502Y-103905820D01*
X92380537Y-103795506D01*
X92301185Y-103698815D01*
X92204494Y-103619463D01*
X92094180Y-103560498D01*
X92021620Y-103538487D01*
X92153475Y-103406632D01*
X92315990Y-103163411D01*
X92427932Y-102893158D01*
X92485000Y-102606260D01*
X92485000Y-102313740D01*
X92427932Y-102026842D01*
X92315990Y-101756589D01*
X92153475Y-101513368D01*
X91946632Y-101306525D01*
X91772240Y-101190000D01*
X91946632Y-101073475D01*
X92153475Y-100866632D01*
X92315990Y-100623411D01*
X92427932Y-100353158D01*
X92485000Y-100066260D01*
X92485000Y-99773740D01*
X92427932Y-99486842D01*
X92315990Y-99216589D01*
X92153475Y-98973368D01*
X91946632Y-98766525D01*
X91703411Y-98604010D01*
X91433158Y-98492068D01*
X91146260Y-98435000D01*
X90853740Y-98435000D01*
X90566842Y-98492068D01*
X90296589Y-98604010D01*
X90053368Y-98766525D01*
X89846525Y-98973368D01*
X89684010Y-99216589D01*
X89572068Y-99486842D01*
X89515000Y-99773740D01*
X89515000Y-100066260D01*
X89572068Y-100353158D01*
X89684010Y-100623411D01*
X89846525Y-100866632D01*
X90053368Y-101073475D01*
X90227760Y-101190000D01*
X90053368Y-101306525D01*
X89846525Y-101513368D01*
X89684010Y-101756589D01*
X89572068Y-102026842D01*
X89515000Y-102313740D01*
X89515000Y-102606260D01*
X89572068Y-102893158D01*
X89684010Y-103163411D01*
X89846525Y-103406632D01*
X89978380Y-103538487D01*
X89905820Y-103560498D01*
X89795506Y-103619463D01*
X89698815Y-103698815D01*
X89619463Y-103795506D01*
X89560498Y-103905820D01*
X89524188Y-104025518D01*
X89511928Y-104150000D01*
X80660000Y-104150000D01*
X80660000Y-77050000D01*
X89511928Y-77050000D01*
X89524188Y-77174482D01*
X89560498Y-77294180D01*
X89619463Y-77404494D01*
X89698815Y-77501185D01*
X89795506Y-77580537D01*
X89905820Y-77639502D01*
X89978380Y-77661513D01*
X89846525Y-77793368D01*
X89684010Y-78036589D01*
X89572068Y-78306842D01*
X89515000Y-78593740D01*
X89515000Y-78886260D01*
X89572068Y-79173158D01*
X89684010Y-79443411D01*
X89846525Y-79686632D01*
X90053368Y-79893475D01*
X90227760Y-80010000D01*
X90053368Y-80126525D01*
X89846525Y-80333368D01*
X89684010Y-80576589D01*
X89572068Y-80846842D01*
X89515000Y-81133740D01*
X89515000Y-81426260D01*
X89572068Y-81713158D01*
X89684010Y-81983411D01*
X89846525Y-82226632D01*
X90053368Y-82433475D01*
X90227760Y-82550000D01*
X90053368Y-82666525D01*
X89846525Y-82873368D01*
X89684010Y-83116589D01*
X89572068Y-83386842D01*
X89515000Y-83673740D01*
X89515000Y-83966260D01*
X89572068Y-84253158D01*
X89684010Y-84523411D01*
X89846525Y-84766632D01*
X90053368Y-84973475D01*
X90227760Y-85090000D01*
X90053368Y-85206525D01*
X89846525Y-85413368D01*
X89684010Y-85656589D01*
X89572068Y-85926842D01*
X89515000Y-86213740D01*
X89515000Y-86506260D01*
X89572068Y-86793158D01*
X89684010Y-87063411D01*
X89846525Y-87306632D01*
X90053368Y-87513475D01*
X90227760Y-87630000D01*
X90053368Y-87746525D01*
X89846525Y-87953368D01*
X89684010Y-88196589D01*
X89572068Y-88466842D01*
X89515000Y-88753740D01*
X89515000Y-89046260D01*
X89572068Y-89333158D01*
X89684010Y-89603411D01*
X89846525Y-89846632D01*
X90053368Y-90053475D01*
X90227760Y-90170000D01*
X90053368Y-90286525D01*
X89846525Y-90493368D01*
X89684010Y-90736589D01*
X89572068Y-91006842D01*
X89515000Y-91293740D01*
X89515000Y-91586260D01*
X89572068Y-91873158D01*
X89684010Y-92143411D01*
X89846525Y-92386632D01*
X90053368Y-92593475D01*
X90227760Y-92710000D01*
X90053368Y-92826525D01*
X89846525Y-93033368D01*
X89684010Y-93276589D01*
X89572068Y-93546842D01*
X89515000Y-93833740D01*
X89515000Y-94126260D01*
X89572068Y-94413158D01*
X89684010Y-94683411D01*
X89846525Y-94926632D01*
X90053368Y-95133475D01*
X90296589Y-95295990D01*
X90566842Y-95407932D01*
X90853740Y-95465000D01*
X91146260Y-95465000D01*
X91433158Y-95407932D01*
X91703411Y-95295990D01*
X91946632Y-95133475D01*
X92153475Y-94926632D01*
X92315990Y-94683411D01*
X92427932Y-94413158D01*
X92485000Y-94126260D01*
X92485000Y-93833740D01*
X92427932Y-93546842D01*
X92315990Y-93276589D01*
X92153475Y-93033368D01*
X91946632Y-92826525D01*
X91772240Y-92710000D01*
X91946632Y-92593475D01*
X92153475Y-92386632D01*
X92315990Y-92143411D01*
X92427932Y-91873158D01*
X92485000Y-91586260D01*
X92485000Y-91293740D01*
X92427932Y-91006842D01*
X92315990Y-90736589D01*
X92153475Y-90493368D01*
X91946632Y-90286525D01*
X91772240Y-90170000D01*
X91946632Y-90053475D01*
X92153475Y-89846632D01*
X92315990Y-89603411D01*
X92427932Y-89333158D01*
X92485000Y-89046260D01*
X92485000Y-88753740D01*
X92427932Y-88466842D01*
X92315990Y-88196589D01*
X92153475Y-87953368D01*
X91946632Y-87746525D01*
X91772240Y-87630000D01*
X91946632Y-87513475D01*
X92153475Y-87306632D01*
X92315990Y-87063411D01*
X92427932Y-86793158D01*
X92485000Y-86506260D01*
X92485000Y-86213740D01*
X92427932Y-85926842D01*
X92315990Y-85656589D01*
X92153475Y-85413368D01*
X91946632Y-85206525D01*
X91772240Y-85090000D01*
X91946632Y-84973475D01*
X92153475Y-84766632D01*
X92315990Y-84523411D01*
X92427932Y-84253158D01*
X92485000Y-83966260D01*
X92485000Y-83673740D01*
X92427932Y-83386842D01*
X92315990Y-83116589D01*
X92153475Y-82873368D01*
X91946632Y-82666525D01*
X91772240Y-82550000D01*
X91946632Y-82433475D01*
X92153475Y-82226632D01*
X92315990Y-81983411D01*
X92427932Y-81713158D01*
X92485000Y-81426260D01*
X92485000Y-81133740D01*
X92427932Y-80846842D01*
X92315990Y-80576589D01*
X92153475Y-80333368D01*
X91946632Y-80126525D01*
X91772240Y-80010000D01*
X91946632Y-79893475D01*
X92153475Y-79686632D01*
X92315990Y-79443411D01*
X92427932Y-79173158D01*
X92485000Y-78886260D01*
X92485000Y-78593740D01*
X92427932Y-78306842D01*
X92315990Y-78036589D01*
X92153475Y-77793368D01*
X92021620Y-77661513D01*
X92094180Y-77639502D01*
X92204494Y-77580537D01*
X92301185Y-77501185D01*
X92380537Y-77404494D01*
X92439502Y-77294180D01*
X92475812Y-77174482D01*
X92488072Y-77050000D01*
X92486984Y-76850000D01*
X117511928Y-76850000D01*
X117524188Y-76974482D01*
X117560498Y-77094180D01*
X117619463Y-77204494D01*
X117698815Y-77301185D01*
X117795506Y-77380537D01*
X117905820Y-77439502D01*
X117978380Y-77461513D01*
X117846525Y-77593368D01*
X117684010Y-77836589D01*
X117572068Y-78106842D01*
X117515000Y-78393740D01*
X117515000Y-78686260D01*
X117572068Y-78973158D01*
X117684010Y-79243411D01*
X117846525Y-79486632D01*
X118053368Y-79693475D01*
X118227760Y-79810000D01*
X118053368Y-79926525D01*
X117846525Y-80133368D01*
X117684010Y-80376589D01*
X117572068Y-80646842D01*
X117515000Y-80933740D01*
X117515000Y-81226260D01*
X117572068Y-81513158D01*
X117684010Y-81783411D01*
X117846525Y-82026632D01*
X118053368Y-82233475D01*
X118227760Y-82350000D01*
X118053368Y-82466525D01*
X117846525Y-82673368D01*
X117684010Y-82916589D01*
X117572068Y-83186842D01*
X117515000Y-83473740D01*
X117515000Y-83766260D01*
X117572068Y-84053158D01*
X117684010Y-84323411D01*
X117846525Y-84566632D01*
X118053368Y-84773475D01*
X118227760Y-84890000D01*
X118053368Y-85006525D01*
X117846525Y-85213368D01*
X117684010Y-85456589D01*
X117572068Y-85726842D01*
X117515000Y-86013740D01*
X117515000Y-86306260D01*
X117572068Y-86593158D01*
X117684010Y-86863411D01*
X117846525Y-87106632D01*
X118053368Y-87313475D01*
X118227760Y-87430000D01*
X118053368Y-87546525D01*
X117846525Y-87753368D01*
X117684010Y-87996589D01*
X117572068Y-88266842D01*
X117515000Y-88553740D01*
X117515000Y-88846260D01*
X117572068Y-89133158D01*
X117684010Y-89403411D01*
X117846525Y-89646632D01*
X118053368Y-89853475D01*
X118227760Y-89970000D01*
X118053368Y-90086525D01*
X117846525Y-90293368D01*
X117684010Y-90536589D01*
X117572068Y-90806842D01*
X117515000Y-91093740D01*
X117515000Y-91386260D01*
X117572068Y-91673158D01*
X117684010Y-91943411D01*
X117846525Y-92186632D01*
X118053368Y-92393475D01*
X118227760Y-92510000D01*
X118053368Y-92626525D01*
X117846525Y-92833368D01*
X117684010Y-93076589D01*
X117572068Y-93346842D01*
X117515000Y-93633740D01*
X117515000Y-93926260D01*
X117572068Y-94213158D01*
X117684010Y-94483411D01*
X117846525Y-94726632D01*
X118053368Y-94933475D01*
X118296589Y-95095990D01*
X118566842Y-95207932D01*
X118853740Y-95265000D01*
X119146260Y-95265000D01*
X119433158Y-95207932D01*
X119703411Y-95095990D01*
X119946632Y-94933475D01*
X120153475Y-94726632D01*
X120315990Y-94483411D01*
X120427932Y-94213158D01*
X120485000Y-93926260D01*
X120485000Y-93633740D01*
X120427932Y-93346842D01*
X120315990Y-93076589D01*
X120153475Y-92833368D01*
X119946632Y-92626525D01*
X119772240Y-92510000D01*
X119946632Y-92393475D01*
X120153475Y-92186632D01*
X120315990Y-91943411D01*
X120427932Y-91673158D01*
X120485000Y-91386260D01*
X120485000Y-91093740D01*
X120427932Y-90806842D01*
X120315990Y-90536589D01*
X120153475Y-90293368D01*
X119946632Y-90086525D01*
X119772240Y-89970000D01*
X119946632Y-89853475D01*
X120153475Y-89646632D01*
X120315990Y-89403411D01*
X120427932Y-89133158D01*
X120485000Y-88846260D01*
X120485000Y-88553740D01*
X120427932Y-88266842D01*
X120315990Y-87996589D01*
X120153475Y-87753368D01*
X119946632Y-87546525D01*
X119772240Y-87430000D01*
X119946632Y-87313475D01*
X120153475Y-87106632D01*
X120315990Y-86863411D01*
X120427932Y-86593158D01*
X120485000Y-86306260D01*
X120485000Y-86013740D01*
X120427932Y-85726842D01*
X120315990Y-85456589D01*
X120153475Y-85213368D01*
X119946632Y-85006525D01*
X119772240Y-84890000D01*
X119946632Y-84773475D01*
X120153475Y-84566632D01*
X120315990Y-84323411D01*
X120427932Y-84053158D01*
X120485000Y-83766260D01*
X120485000Y-83473740D01*
X120427932Y-83186842D01*
X120315990Y-82916589D01*
X120153475Y-82673368D01*
X119946632Y-82466525D01*
X119772240Y-82350000D01*
X119946632Y-82233475D01*
X120153475Y-82026632D01*
X120315990Y-81783411D01*
X120427932Y-81513158D01*
X120485000Y-81226260D01*
X120485000Y-80933740D01*
X120427932Y-80646842D01*
X120315990Y-80376589D01*
X120153475Y-80133368D01*
X119946632Y-79926525D01*
X119772240Y-79810000D01*
X119946632Y-79693475D01*
X120153475Y-79486632D01*
X120315990Y-79243411D01*
X120427932Y-78973158D01*
X120485000Y-78686260D01*
X120485000Y-78393740D01*
X120427932Y-78106842D01*
X120315990Y-77836589D01*
X120153475Y-77593368D01*
X120021620Y-77461513D01*
X120094180Y-77439502D01*
X120204494Y-77380537D01*
X120301185Y-77301185D01*
X120380537Y-77204494D01*
X120439502Y-77094180D01*
X120475812Y-76974482D01*
X120488072Y-76850000D01*
X120485000Y-76285750D01*
X120326250Y-76127000D01*
X119127000Y-76127000D01*
X119127000Y-76147000D01*
X118873000Y-76147000D01*
X118873000Y-76127000D01*
X117673750Y-76127000D01*
X117515000Y-76285750D01*
X117511928Y-76850000D01*
X92486984Y-76850000D01*
X92485000Y-76485750D01*
X92326250Y-76327000D01*
X91127000Y-76327000D01*
X91127000Y-76347000D01*
X90873000Y-76347000D01*
X90873000Y-76327000D01*
X89673750Y-76327000D01*
X89515000Y-76485750D01*
X89511928Y-77050000D01*
X80660000Y-77050000D01*
X80660000Y-75350000D01*
X89511928Y-75350000D01*
X89515000Y-75914250D01*
X89673750Y-76073000D01*
X90873000Y-76073000D01*
X90873000Y-74873750D01*
X91127000Y-74873750D01*
X91127000Y-76073000D01*
X92326250Y-76073000D01*
X92485000Y-75914250D01*
X92488072Y-75350000D01*
X92475812Y-75225518D01*
X92452904Y-75150000D01*
X117511928Y-75150000D01*
X117515000Y-75714250D01*
X117673750Y-75873000D01*
X118873000Y-75873000D01*
X118873000Y-74673750D01*
X119127000Y-74673750D01*
X119127000Y-75873000D01*
X120326250Y-75873000D01*
X120485000Y-75714250D01*
X120488072Y-75150000D01*
X120475812Y-75025518D01*
X120439502Y-74905820D01*
X120380537Y-74795506D01*
X120301185Y-74698815D01*
X120204494Y-74619463D01*
X120094180Y-74560498D01*
X119974482Y-74524188D01*
X119850000Y-74511928D01*
X119285750Y-74515000D01*
X119127000Y-74673750D01*
X118873000Y-74673750D01*
X118714250Y-74515000D01*
X118150000Y-74511928D01*
X118025518Y-74524188D01*
X117905820Y-74560498D01*
X117795506Y-74619463D01*
X117698815Y-74698815D01*
X117619463Y-74795506D01*
X117560498Y-74905820D01*
X117524188Y-75025518D01*
X117511928Y-75150000D01*
X92452904Y-75150000D01*
X92439502Y-75105820D01*
X92380537Y-74995506D01*
X92301185Y-74898815D01*
X92204494Y-74819463D01*
X92094180Y-74760498D01*
X91974482Y-74724188D01*
X91850000Y-74711928D01*
X91285750Y-74715000D01*
X91127000Y-74873750D01*
X90873000Y-74873750D01*
X90714250Y-74715000D01*
X90150000Y-74711928D01*
X90025518Y-74724188D01*
X89905820Y-74760498D01*
X89795506Y-74819463D01*
X89698815Y-74898815D01*
X89619463Y-74995506D01*
X89560498Y-75105820D01*
X89524188Y-75225518D01*
X89511928Y-75350000D01*
X80660000Y-75350000D01*
X80660000Y-71670512D01*
X92959783Y-71670512D01*
X93001213Y-71950130D01*
X93096397Y-72216292D01*
X93163329Y-72341514D01*
X93407298Y-72413097D01*
X94220395Y-71600000D01*
X93407298Y-70786903D01*
X93163329Y-70858486D01*
X93042429Y-71113996D01*
X92973700Y-71388184D01*
X92959783Y-71670512D01*
X80660000Y-71670512D01*
X80660000Y-70607298D01*
X93586903Y-70607298D01*
X94400000Y-71420395D01*
X94414143Y-71406253D01*
X94593748Y-71585858D01*
X94579605Y-71600000D01*
X94593748Y-71614143D01*
X94414143Y-71793748D01*
X94400000Y-71779605D01*
X93586903Y-72592702D01*
X93658486Y-72836671D01*
X93913996Y-72957571D01*
X94188184Y-73026300D01*
X94470512Y-73040217D01*
X94750130Y-72998787D01*
X95016292Y-72903603D01*
X95138309Y-72838384D01*
X95148815Y-72851185D01*
X95245506Y-72930537D01*
X95355820Y-72989502D01*
X95475518Y-73025812D01*
X95600000Y-73038072D01*
X97200000Y-73038072D01*
X97324482Y-73025812D01*
X97444180Y-72989502D01*
X97554494Y-72930537D01*
X97651185Y-72851185D01*
X97730537Y-72754494D01*
X97789502Y-72644180D01*
X97825812Y-72524482D01*
X97838072Y-72400000D01*
X109961928Y-72400000D01*
X109961928Y-74000000D01*
X109974188Y-74124482D01*
X110010498Y-74244180D01*
X110069463Y-74354494D01*
X110148815Y-74451185D01*
X110245506Y-74530537D01*
X110355820Y-74589502D01*
X110475518Y-74625812D01*
X110600000Y-74638072D01*
X112200000Y-74638072D01*
X112324482Y-74625812D01*
X112444180Y-74589502D01*
X112554494Y-74530537D01*
X112651185Y-74451185D01*
X112661807Y-74438242D01*
X112913996Y-74557571D01*
X113188184Y-74626300D01*
X113470512Y-74640217D01*
X113750130Y-74598787D01*
X114016292Y-74503603D01*
X114141514Y-74436671D01*
X114213097Y-74192702D01*
X113400000Y-73379605D01*
X113385858Y-73393748D01*
X113206253Y-73214143D01*
X113220395Y-73200000D01*
X113579605Y-73200000D01*
X114392702Y-74013097D01*
X114636671Y-73941514D01*
X114757571Y-73686004D01*
X114826300Y-73411816D01*
X114840217Y-73129488D01*
X114798787Y-72849870D01*
X114703603Y-72583708D01*
X114636671Y-72458486D01*
X114392702Y-72386903D01*
X113579605Y-73200000D01*
X113220395Y-73200000D01*
X113206253Y-73185858D01*
X113385858Y-73006253D01*
X113400000Y-73020395D01*
X114213097Y-72207298D01*
X114141514Y-71963329D01*
X113886004Y-71842429D01*
X113611816Y-71773700D01*
X113329488Y-71759783D01*
X113049870Y-71801213D01*
X112783708Y-71896397D01*
X112661691Y-71961616D01*
X112651185Y-71948815D01*
X112554494Y-71869463D01*
X112444180Y-71810498D01*
X112324482Y-71774188D01*
X112200000Y-71761928D01*
X110600000Y-71761928D01*
X110475518Y-71774188D01*
X110355820Y-71810498D01*
X110245506Y-71869463D01*
X110148815Y-71948815D01*
X110069463Y-72045506D01*
X110010498Y-72155820D01*
X109974188Y-72275518D01*
X109961928Y-72400000D01*
X97838072Y-72400000D01*
X97838072Y-70800000D01*
X97825812Y-70675518D01*
X97789502Y-70555820D01*
X97730537Y-70445506D01*
X97651185Y-70348815D01*
X97554494Y-70269463D01*
X97444180Y-70210498D01*
X97324482Y-70174188D01*
X97200000Y-70161928D01*
X95600000Y-70161928D01*
X95475518Y-70174188D01*
X95355820Y-70210498D01*
X95245506Y-70269463D01*
X95148815Y-70348815D01*
X95138193Y-70361758D01*
X94886004Y-70242429D01*
X94611816Y-70173700D01*
X94329488Y-70159783D01*
X94049870Y-70201213D01*
X93783708Y-70296397D01*
X93658486Y-70363329D01*
X93586903Y-70607298D01*
X80660000Y-70607298D01*
X80660000Y-64450000D01*
X99111928Y-64450000D01*
X99124188Y-64574482D01*
X99160498Y-64694180D01*
X99219463Y-64804494D01*
X99298815Y-64901185D01*
X99395506Y-64980537D01*
X99505820Y-65039502D01*
X99625518Y-65075812D01*
X99750000Y-65088072D01*
X100314250Y-65085000D01*
X100473000Y-64926250D01*
X100473000Y-63727000D01*
X99273750Y-63727000D01*
X99115000Y-63885750D01*
X99111928Y-64450000D01*
X80660000Y-64450000D01*
X80660000Y-62750000D01*
X99111928Y-62750000D01*
X99115000Y-63314250D01*
X99273750Y-63473000D01*
X100473000Y-63473000D01*
X100473000Y-62273750D01*
X100727000Y-62273750D01*
X100727000Y-63473000D01*
X100747000Y-63473000D01*
X100747000Y-63727000D01*
X100727000Y-63727000D01*
X100727000Y-64926250D01*
X100885750Y-65085000D01*
X101450000Y-65088072D01*
X101574482Y-65075812D01*
X101694180Y-65039502D01*
X101804494Y-64980537D01*
X101901185Y-64901185D01*
X101980537Y-64804494D01*
X102039502Y-64694180D01*
X102061513Y-64621620D01*
X102193368Y-64753475D01*
X102436589Y-64915990D01*
X102706842Y-65027932D01*
X102993740Y-65085000D01*
X103286260Y-65085000D01*
X103573158Y-65027932D01*
X103843411Y-64915990D01*
X104086632Y-64753475D01*
X104293475Y-64546632D01*
X104410000Y-64372240D01*
X104526525Y-64546632D01*
X104733368Y-64753475D01*
X104976589Y-64915990D01*
X105246842Y-65027932D01*
X105533740Y-65085000D01*
X105826260Y-65085000D01*
X106113158Y-65027932D01*
X106383411Y-64915990D01*
X106626632Y-64753475D01*
X106833475Y-64546632D01*
X106955195Y-64364466D01*
X107024822Y-64481355D01*
X107219731Y-64697588D01*
X107453080Y-64871641D01*
X107715901Y-64996825D01*
X107863110Y-65041476D01*
X108093000Y-64920155D01*
X108093000Y-63727000D01*
X108347000Y-63727000D01*
X108347000Y-64920155D01*
X108576890Y-65041476D01*
X108724099Y-64996825D01*
X108986920Y-64871641D01*
X109220269Y-64697588D01*
X109415178Y-64481355D01*
X109564157Y-64231252D01*
X109661481Y-63956891D01*
X109540814Y-63727000D01*
X108347000Y-63727000D01*
X108093000Y-63727000D01*
X108073000Y-63727000D01*
X108073000Y-63473000D01*
X108093000Y-63473000D01*
X108093000Y-62279845D01*
X108347000Y-62279845D01*
X108347000Y-63473000D01*
X109540814Y-63473000D01*
X109661481Y-63243109D01*
X109564157Y-62968748D01*
X109415178Y-62718645D01*
X109220269Y-62502412D01*
X108986920Y-62328359D01*
X108724099Y-62203175D01*
X108576890Y-62158524D01*
X108347000Y-62279845D01*
X108093000Y-62279845D01*
X107863110Y-62158524D01*
X107715901Y-62203175D01*
X107453080Y-62328359D01*
X107219731Y-62502412D01*
X107024822Y-62718645D01*
X106955195Y-62835534D01*
X106833475Y-62653368D01*
X106626632Y-62446525D01*
X106383411Y-62284010D01*
X106113158Y-62172068D01*
X105826260Y-62115000D01*
X105533740Y-62115000D01*
X105246842Y-62172068D01*
X104976589Y-62284010D01*
X104733368Y-62446525D01*
X104526525Y-62653368D01*
X104410000Y-62827760D01*
X104293475Y-62653368D01*
X104086632Y-62446525D01*
X103843411Y-62284010D01*
X103573158Y-62172068D01*
X103286260Y-62115000D01*
X102993740Y-62115000D01*
X102706842Y-62172068D01*
X102436589Y-62284010D01*
X102193368Y-62446525D01*
X102061513Y-62578380D01*
X102039502Y-62505820D01*
X101980537Y-62395506D01*
X101901185Y-62298815D01*
X101804494Y-62219463D01*
X101694180Y-62160498D01*
X101574482Y-62124188D01*
X101450000Y-62111928D01*
X100885750Y-62115000D01*
X100727000Y-62273750D01*
X100473000Y-62273750D01*
X100314250Y-62115000D01*
X99750000Y-62111928D01*
X99625518Y-62124188D01*
X99505820Y-62160498D01*
X99395506Y-62219463D01*
X99298815Y-62298815D01*
X99219463Y-62395506D01*
X99160498Y-62505820D01*
X99124188Y-62625518D01*
X99111928Y-62750000D01*
X80660000Y-62750000D01*
X80660000Y-58660000D01*
X129340000Y-58660000D01*
X129340001Y-107340000D01*
%TA.AperFunction,Conductor*%
D16*
G36*
X129340001Y-107340000D02*
G01*
X80660000Y-107340000D01*
X80660000Y-105850000D01*
X89511928Y-105850000D01*
X89524188Y-105974482D01*
X89560498Y-106094180D01*
X89619463Y-106204494D01*
X89698815Y-106301185D01*
X89795506Y-106380537D01*
X89905820Y-106439502D01*
X90025518Y-106475812D01*
X90150000Y-106488072D01*
X90714250Y-106485000D01*
X90873000Y-106326250D01*
X90873000Y-105127000D01*
X91127000Y-105127000D01*
X91127000Y-106326250D01*
X91285750Y-106485000D01*
X91850000Y-106488072D01*
X91974482Y-106475812D01*
X92094180Y-106439502D01*
X92204494Y-106380537D01*
X92301185Y-106301185D01*
X92380537Y-106204494D01*
X92439502Y-106094180D01*
X92475812Y-105974482D01*
X92488072Y-105850000D01*
X97711928Y-105850000D01*
X97724188Y-105974482D01*
X97760498Y-106094180D01*
X97819463Y-106204494D01*
X97898815Y-106301185D01*
X97995506Y-106380537D01*
X98105820Y-106439502D01*
X98225518Y-106475812D01*
X98350000Y-106488072D01*
X98914250Y-106485000D01*
X99073000Y-106326250D01*
X99073000Y-105127000D01*
X97873750Y-105127000D01*
X97715000Y-105285750D01*
X97711928Y-105850000D01*
X92488072Y-105850000D01*
X92485000Y-105285750D01*
X92326250Y-105127000D01*
X91127000Y-105127000D01*
X90873000Y-105127000D01*
X89673750Y-105127000D01*
X89515000Y-105285750D01*
X89511928Y-105850000D01*
X80660000Y-105850000D01*
X80660000Y-104150000D01*
X89511928Y-104150000D01*
X89515000Y-104714250D01*
X89673750Y-104873000D01*
X90873000Y-104873000D01*
X90873000Y-104853000D01*
X91127000Y-104853000D01*
X91127000Y-104873000D01*
X92326250Y-104873000D01*
X92485000Y-104714250D01*
X92488072Y-104150000D01*
X97711928Y-104150000D01*
X97715000Y-104714250D01*
X97873750Y-104873000D01*
X99073000Y-104873000D01*
X99073000Y-103673750D01*
X99327000Y-103673750D01*
X99327000Y-104873000D01*
X99347000Y-104873000D01*
X99347000Y-105127000D01*
X99327000Y-105127000D01*
X99327000Y-106326250D01*
X99485750Y-106485000D01*
X100050000Y-106488072D01*
X100174482Y-106475812D01*
X100294180Y-106439502D01*
X100404494Y-106380537D01*
X100501185Y-106301185D01*
X100580537Y-106204494D01*
X100639502Y-106094180D01*
X100661513Y-106021620D01*
X100793368Y-106153475D01*
X101036589Y-106315990D01*
X101306842Y-106427932D01*
X101593740Y-106485000D01*
X101886260Y-106485000D01*
X102173158Y-106427932D01*
X102443411Y-106315990D01*
X102686632Y-106153475D01*
X102893475Y-105946632D01*
X103010000Y-105772240D01*
X103126525Y-105946632D01*
X103333368Y-106153475D01*
X103576589Y-106315990D01*
X103846842Y-106427932D01*
X104133740Y-106485000D01*
X104426260Y-106485000D01*
X104713158Y-106427932D01*
X104983411Y-106315990D01*
X105226632Y-106153475D01*
X105433475Y-105946632D01*
X105550000Y-105772240D01*
X105666525Y-105946632D01*
X105873368Y-106153475D01*
X106116589Y-106315990D01*
X106386842Y-106427932D01*
X106673740Y-106485000D01*
X106966260Y-106485000D01*
X107253158Y-106427932D01*
X107523411Y-106315990D01*
X107766632Y-106153475D01*
X107973475Y-105946632D01*
X108090000Y-105772240D01*
X108206525Y-105946632D01*
X108413368Y-106153475D01*
X108656589Y-106315990D01*
X108926842Y-106427932D01*
X109213740Y-106485000D01*
X109506260Y-106485000D01*
X109793158Y-106427932D01*
X110063411Y-106315990D01*
X110306632Y-106153475D01*
X110513475Y-105946632D01*
X110630000Y-105772240D01*
X110746525Y-105946632D01*
X110953368Y-106153475D01*
X111196589Y-106315990D01*
X111466842Y-106427932D01*
X111753740Y-106485000D01*
X112046260Y-106485000D01*
X112333158Y-106427932D01*
X112603411Y-106315990D01*
X112846632Y-106153475D01*
X113053475Y-105946632D01*
X113215990Y-105703411D01*
X113327932Y-105433158D01*
X113385000Y-105146260D01*
X113385000Y-104853740D01*
X113327932Y-104566842D01*
X113215990Y-104296589D01*
X113053475Y-104053368D01*
X112846632Y-103846525D01*
X112603411Y-103684010D01*
X112333158Y-103572068D01*
X112046260Y-103515000D01*
X111753740Y-103515000D01*
X111466842Y-103572068D01*
X111196589Y-103684010D01*
X110953368Y-103846525D01*
X110746525Y-104053368D01*
X110630000Y-104227760D01*
X110513475Y-104053368D01*
X110306632Y-103846525D01*
X110063411Y-103684010D01*
X109793158Y-103572068D01*
X109506260Y-103515000D01*
X109213740Y-103515000D01*
X108926842Y-103572068D01*
X108656589Y-103684010D01*
X108413368Y-103846525D01*
X108206525Y-104053368D01*
X108090000Y-104227760D01*
X107973475Y-104053368D01*
X107766632Y-103846525D01*
X107523411Y-103684010D01*
X107253158Y-103572068D01*
X106966260Y-103515000D01*
X106673740Y-103515000D01*
X106386842Y-103572068D01*
X106116589Y-103684010D01*
X105873368Y-103846525D01*
X105666525Y-104053368D01*
X105550000Y-104227760D01*
X105433475Y-104053368D01*
X105226632Y-103846525D01*
X104983411Y-103684010D01*
X104713158Y-103572068D01*
X104426260Y-103515000D01*
X104133740Y-103515000D01*
X103846842Y-103572068D01*
X103576589Y-103684010D01*
X103333368Y-103846525D01*
X103126525Y-104053368D01*
X103010000Y-104227760D01*
X102893475Y-104053368D01*
X102686632Y-103846525D01*
X102443411Y-103684010D01*
X102173158Y-103572068D01*
X101886260Y-103515000D01*
X101593740Y-103515000D01*
X101306842Y-103572068D01*
X101036589Y-103684010D01*
X100793368Y-103846525D01*
X100661513Y-103978380D01*
X100639502Y-103905820D01*
X100580537Y-103795506D01*
X100501185Y-103698815D01*
X100404494Y-103619463D01*
X100294180Y-103560498D01*
X100174482Y-103524188D01*
X100050000Y-103511928D01*
X99485750Y-103515000D01*
X99327000Y-103673750D01*
X99073000Y-103673750D01*
X98914250Y-103515000D01*
X98350000Y-103511928D01*
X98225518Y-103524188D01*
X98105820Y-103560498D01*
X97995506Y-103619463D01*
X97898815Y-103698815D01*
X97819463Y-103795506D01*
X97760498Y-103905820D01*
X97724188Y-104025518D01*
X97711928Y-104150000D01*
X92488072Y-104150000D01*
X92475812Y-104025518D01*
X92439502Y-103905820D01*
X92380537Y-103795506D01*
X92301185Y-103698815D01*
X92204494Y-103619463D01*
X92094180Y-103560498D01*
X92021620Y-103538487D01*
X92153475Y-103406632D01*
X92315990Y-103163411D01*
X92427932Y-102893158D01*
X92485000Y-102606260D01*
X92485000Y-102313740D01*
X92427932Y-102026842D01*
X92315990Y-101756589D01*
X92153475Y-101513368D01*
X91946632Y-101306525D01*
X91772240Y-101190000D01*
X91946632Y-101073475D01*
X92153475Y-100866632D01*
X92315990Y-100623411D01*
X92427932Y-100353158D01*
X92485000Y-100066260D01*
X92485000Y-99773740D01*
X92427932Y-99486842D01*
X92315990Y-99216589D01*
X92153475Y-98973368D01*
X91946632Y-98766525D01*
X91703411Y-98604010D01*
X91433158Y-98492068D01*
X91146260Y-98435000D01*
X90853740Y-98435000D01*
X90566842Y-98492068D01*
X90296589Y-98604010D01*
X90053368Y-98766525D01*
X89846525Y-98973368D01*
X89684010Y-99216589D01*
X89572068Y-99486842D01*
X89515000Y-99773740D01*
X89515000Y-100066260D01*
X89572068Y-100353158D01*
X89684010Y-100623411D01*
X89846525Y-100866632D01*
X90053368Y-101073475D01*
X90227760Y-101190000D01*
X90053368Y-101306525D01*
X89846525Y-101513368D01*
X89684010Y-101756589D01*
X89572068Y-102026842D01*
X89515000Y-102313740D01*
X89515000Y-102606260D01*
X89572068Y-102893158D01*
X89684010Y-103163411D01*
X89846525Y-103406632D01*
X89978380Y-103538487D01*
X89905820Y-103560498D01*
X89795506Y-103619463D01*
X89698815Y-103698815D01*
X89619463Y-103795506D01*
X89560498Y-103905820D01*
X89524188Y-104025518D01*
X89511928Y-104150000D01*
X80660000Y-104150000D01*
X80660000Y-77050000D01*
X89511928Y-77050000D01*
X89524188Y-77174482D01*
X89560498Y-77294180D01*
X89619463Y-77404494D01*
X89698815Y-77501185D01*
X89795506Y-77580537D01*
X89905820Y-77639502D01*
X89978380Y-77661513D01*
X89846525Y-77793368D01*
X89684010Y-78036589D01*
X89572068Y-78306842D01*
X89515000Y-78593740D01*
X89515000Y-78886260D01*
X89572068Y-79173158D01*
X89684010Y-79443411D01*
X89846525Y-79686632D01*
X90053368Y-79893475D01*
X90227760Y-80010000D01*
X90053368Y-80126525D01*
X89846525Y-80333368D01*
X89684010Y-80576589D01*
X89572068Y-80846842D01*
X89515000Y-81133740D01*
X89515000Y-81426260D01*
X89572068Y-81713158D01*
X89684010Y-81983411D01*
X89846525Y-82226632D01*
X90053368Y-82433475D01*
X90227760Y-82550000D01*
X90053368Y-82666525D01*
X89846525Y-82873368D01*
X89684010Y-83116589D01*
X89572068Y-83386842D01*
X89515000Y-83673740D01*
X89515000Y-83966260D01*
X89572068Y-84253158D01*
X89684010Y-84523411D01*
X89846525Y-84766632D01*
X90053368Y-84973475D01*
X90227760Y-85090000D01*
X90053368Y-85206525D01*
X89846525Y-85413368D01*
X89684010Y-85656589D01*
X89572068Y-85926842D01*
X89515000Y-86213740D01*
X89515000Y-86506260D01*
X89572068Y-86793158D01*
X89684010Y-87063411D01*
X89846525Y-87306632D01*
X90053368Y-87513475D01*
X90227760Y-87630000D01*
X90053368Y-87746525D01*
X89846525Y-87953368D01*
X89684010Y-88196589D01*
X89572068Y-88466842D01*
X89515000Y-88753740D01*
X89515000Y-89046260D01*
X89572068Y-89333158D01*
X89684010Y-89603411D01*
X89846525Y-89846632D01*
X90053368Y-90053475D01*
X90227760Y-90170000D01*
X90053368Y-90286525D01*
X89846525Y-90493368D01*
X89684010Y-90736589D01*
X89572068Y-91006842D01*
X89515000Y-91293740D01*
X89515000Y-91586260D01*
X89572068Y-91873158D01*
X89684010Y-92143411D01*
X89846525Y-92386632D01*
X90053368Y-92593475D01*
X90227760Y-92710000D01*
X90053368Y-92826525D01*
X89846525Y-93033368D01*
X89684010Y-93276589D01*
X89572068Y-93546842D01*
X89515000Y-93833740D01*
X89515000Y-94126260D01*
X89572068Y-94413158D01*
X89684010Y-94683411D01*
X89846525Y-94926632D01*
X90053368Y-95133475D01*
X90296589Y-95295990D01*
X90566842Y-95407932D01*
X90853740Y-95465000D01*
X91146260Y-95465000D01*
X91433158Y-95407932D01*
X91703411Y-95295990D01*
X91946632Y-95133475D01*
X92153475Y-94926632D01*
X92315990Y-94683411D01*
X92427932Y-94413158D01*
X92485000Y-94126260D01*
X92485000Y-93833740D01*
X92427932Y-93546842D01*
X92315990Y-93276589D01*
X92153475Y-93033368D01*
X91946632Y-92826525D01*
X91772240Y-92710000D01*
X91946632Y-92593475D01*
X92153475Y-92386632D01*
X92315990Y-92143411D01*
X92427932Y-91873158D01*
X92485000Y-91586260D01*
X92485000Y-91293740D01*
X92427932Y-91006842D01*
X92315990Y-90736589D01*
X92153475Y-90493368D01*
X91946632Y-90286525D01*
X91772240Y-90170000D01*
X91946632Y-90053475D01*
X92153475Y-89846632D01*
X92315990Y-89603411D01*
X92427932Y-89333158D01*
X92485000Y-89046260D01*
X92485000Y-88753740D01*
X92427932Y-88466842D01*
X92315990Y-88196589D01*
X92153475Y-87953368D01*
X91946632Y-87746525D01*
X91772240Y-87630000D01*
X91946632Y-87513475D01*
X92153475Y-87306632D01*
X92315990Y-87063411D01*
X92427932Y-86793158D01*
X92485000Y-86506260D01*
X92485000Y-86213740D01*
X92427932Y-85926842D01*
X92315990Y-85656589D01*
X92153475Y-85413368D01*
X91946632Y-85206525D01*
X91772240Y-85090000D01*
X91946632Y-84973475D01*
X92153475Y-84766632D01*
X92315990Y-84523411D01*
X92427932Y-84253158D01*
X92485000Y-83966260D01*
X92485000Y-83673740D01*
X92427932Y-83386842D01*
X92315990Y-83116589D01*
X92153475Y-82873368D01*
X91946632Y-82666525D01*
X91772240Y-82550000D01*
X91946632Y-82433475D01*
X92153475Y-82226632D01*
X92315990Y-81983411D01*
X92427932Y-81713158D01*
X92485000Y-81426260D01*
X92485000Y-81133740D01*
X92427932Y-80846842D01*
X92315990Y-80576589D01*
X92153475Y-80333368D01*
X91946632Y-80126525D01*
X91772240Y-80010000D01*
X91946632Y-79893475D01*
X92153475Y-79686632D01*
X92315990Y-79443411D01*
X92427932Y-79173158D01*
X92485000Y-78886260D01*
X92485000Y-78593740D01*
X92427932Y-78306842D01*
X92315990Y-78036589D01*
X92153475Y-77793368D01*
X92021620Y-77661513D01*
X92094180Y-77639502D01*
X92204494Y-77580537D01*
X92301185Y-77501185D01*
X92380537Y-77404494D01*
X92439502Y-77294180D01*
X92475812Y-77174482D01*
X92488072Y-77050000D01*
X92486984Y-76850000D01*
X117511928Y-76850000D01*
X117524188Y-76974482D01*
X117560498Y-77094180D01*
X117619463Y-77204494D01*
X117698815Y-77301185D01*
X117795506Y-77380537D01*
X117905820Y-77439502D01*
X117978380Y-77461513D01*
X117846525Y-77593368D01*
X117684010Y-77836589D01*
X117572068Y-78106842D01*
X117515000Y-78393740D01*
X117515000Y-78686260D01*
X117572068Y-78973158D01*
X117684010Y-79243411D01*
X117846525Y-79486632D01*
X118053368Y-79693475D01*
X118227760Y-79810000D01*
X118053368Y-79926525D01*
X117846525Y-80133368D01*
X117684010Y-80376589D01*
X117572068Y-80646842D01*
X117515000Y-80933740D01*
X117515000Y-81226260D01*
X117572068Y-81513158D01*
X117684010Y-81783411D01*
X117846525Y-82026632D01*
X118053368Y-82233475D01*
X118227760Y-82350000D01*
X118053368Y-82466525D01*
X117846525Y-82673368D01*
X117684010Y-82916589D01*
X117572068Y-83186842D01*
X117515000Y-83473740D01*
X117515000Y-83766260D01*
X117572068Y-84053158D01*
X117684010Y-84323411D01*
X117846525Y-84566632D01*
X118053368Y-84773475D01*
X118227760Y-84890000D01*
X118053368Y-85006525D01*
X117846525Y-85213368D01*
X117684010Y-85456589D01*
X117572068Y-85726842D01*
X117515000Y-86013740D01*
X117515000Y-86306260D01*
X117572068Y-86593158D01*
X117684010Y-86863411D01*
X117846525Y-87106632D01*
X118053368Y-87313475D01*
X118227760Y-87430000D01*
X118053368Y-87546525D01*
X117846525Y-87753368D01*
X117684010Y-87996589D01*
X117572068Y-88266842D01*
X117515000Y-88553740D01*
X117515000Y-88846260D01*
X117572068Y-89133158D01*
X117684010Y-89403411D01*
X117846525Y-89646632D01*
X118053368Y-89853475D01*
X118227760Y-89970000D01*
X118053368Y-90086525D01*
X117846525Y-90293368D01*
X117684010Y-90536589D01*
X117572068Y-90806842D01*
X117515000Y-91093740D01*
X117515000Y-91386260D01*
X117572068Y-91673158D01*
X117684010Y-91943411D01*
X117846525Y-92186632D01*
X118053368Y-92393475D01*
X118227760Y-92510000D01*
X118053368Y-92626525D01*
X117846525Y-92833368D01*
X117684010Y-93076589D01*
X117572068Y-93346842D01*
X117515000Y-93633740D01*
X117515000Y-93926260D01*
X117572068Y-94213158D01*
X117684010Y-94483411D01*
X117846525Y-94726632D01*
X118053368Y-94933475D01*
X118296589Y-95095990D01*
X118566842Y-95207932D01*
X118853740Y-95265000D01*
X119146260Y-95265000D01*
X119433158Y-95207932D01*
X119703411Y-95095990D01*
X119946632Y-94933475D01*
X120153475Y-94726632D01*
X120315990Y-94483411D01*
X120427932Y-94213158D01*
X120485000Y-93926260D01*
X120485000Y-93633740D01*
X120427932Y-93346842D01*
X120315990Y-93076589D01*
X120153475Y-92833368D01*
X119946632Y-92626525D01*
X119772240Y-92510000D01*
X119946632Y-92393475D01*
X120153475Y-92186632D01*
X120315990Y-91943411D01*
X120427932Y-91673158D01*
X120485000Y-91386260D01*
X120485000Y-91093740D01*
X120427932Y-90806842D01*
X120315990Y-90536589D01*
X120153475Y-90293368D01*
X119946632Y-90086525D01*
X119772240Y-89970000D01*
X119946632Y-89853475D01*
X120153475Y-89646632D01*
X120315990Y-89403411D01*
X120427932Y-89133158D01*
X120485000Y-88846260D01*
X120485000Y-88553740D01*
X120427932Y-88266842D01*
X120315990Y-87996589D01*
X120153475Y-87753368D01*
X119946632Y-87546525D01*
X119772240Y-87430000D01*
X119946632Y-87313475D01*
X120153475Y-87106632D01*
X120315990Y-86863411D01*
X120427932Y-86593158D01*
X120485000Y-86306260D01*
X120485000Y-86013740D01*
X120427932Y-85726842D01*
X120315990Y-85456589D01*
X120153475Y-85213368D01*
X119946632Y-85006525D01*
X119772240Y-84890000D01*
X119946632Y-84773475D01*
X120153475Y-84566632D01*
X120315990Y-84323411D01*
X120427932Y-84053158D01*
X120485000Y-83766260D01*
X120485000Y-83473740D01*
X120427932Y-83186842D01*
X120315990Y-82916589D01*
X120153475Y-82673368D01*
X119946632Y-82466525D01*
X119772240Y-82350000D01*
X119946632Y-82233475D01*
X120153475Y-82026632D01*
X120315990Y-81783411D01*
X120427932Y-81513158D01*
X120485000Y-81226260D01*
X120485000Y-80933740D01*
X120427932Y-80646842D01*
X120315990Y-80376589D01*
X120153475Y-80133368D01*
X119946632Y-79926525D01*
X119772240Y-79810000D01*
X119946632Y-79693475D01*
X120153475Y-79486632D01*
X120315990Y-79243411D01*
X120427932Y-78973158D01*
X120485000Y-78686260D01*
X120485000Y-78393740D01*
X120427932Y-78106842D01*
X120315990Y-77836589D01*
X120153475Y-77593368D01*
X120021620Y-77461513D01*
X120094180Y-77439502D01*
X120204494Y-77380537D01*
X120301185Y-77301185D01*
X120380537Y-77204494D01*
X120439502Y-77094180D01*
X120475812Y-76974482D01*
X120488072Y-76850000D01*
X120485000Y-76285750D01*
X120326250Y-76127000D01*
X119127000Y-76127000D01*
X119127000Y-76147000D01*
X118873000Y-76147000D01*
X118873000Y-76127000D01*
X117673750Y-76127000D01*
X117515000Y-76285750D01*
X117511928Y-76850000D01*
X92486984Y-76850000D01*
X92485000Y-76485750D01*
X92326250Y-76327000D01*
X91127000Y-76327000D01*
X91127000Y-76347000D01*
X90873000Y-76347000D01*
X90873000Y-76327000D01*
X89673750Y-76327000D01*
X89515000Y-76485750D01*
X89511928Y-77050000D01*
X80660000Y-77050000D01*
X80660000Y-75350000D01*
X89511928Y-75350000D01*
X89515000Y-75914250D01*
X89673750Y-76073000D01*
X90873000Y-76073000D01*
X90873000Y-74873750D01*
X91127000Y-74873750D01*
X91127000Y-76073000D01*
X92326250Y-76073000D01*
X92485000Y-75914250D01*
X92488072Y-75350000D01*
X92475812Y-75225518D01*
X92452904Y-75150000D01*
X117511928Y-75150000D01*
X117515000Y-75714250D01*
X117673750Y-75873000D01*
X118873000Y-75873000D01*
X118873000Y-74673750D01*
X119127000Y-74673750D01*
X119127000Y-75873000D01*
X120326250Y-75873000D01*
X120485000Y-75714250D01*
X120488072Y-75150000D01*
X120475812Y-75025518D01*
X120439502Y-74905820D01*
X120380537Y-74795506D01*
X120301185Y-74698815D01*
X120204494Y-74619463D01*
X120094180Y-74560498D01*
X119974482Y-74524188D01*
X119850000Y-74511928D01*
X119285750Y-74515000D01*
X119127000Y-74673750D01*
X118873000Y-74673750D01*
X118714250Y-74515000D01*
X118150000Y-74511928D01*
X118025518Y-74524188D01*
X117905820Y-74560498D01*
X117795506Y-74619463D01*
X117698815Y-74698815D01*
X117619463Y-74795506D01*
X117560498Y-74905820D01*
X117524188Y-75025518D01*
X117511928Y-75150000D01*
X92452904Y-75150000D01*
X92439502Y-75105820D01*
X92380537Y-74995506D01*
X92301185Y-74898815D01*
X92204494Y-74819463D01*
X92094180Y-74760498D01*
X91974482Y-74724188D01*
X91850000Y-74711928D01*
X91285750Y-74715000D01*
X91127000Y-74873750D01*
X90873000Y-74873750D01*
X90714250Y-74715000D01*
X90150000Y-74711928D01*
X90025518Y-74724188D01*
X89905820Y-74760498D01*
X89795506Y-74819463D01*
X89698815Y-74898815D01*
X89619463Y-74995506D01*
X89560498Y-75105820D01*
X89524188Y-75225518D01*
X89511928Y-75350000D01*
X80660000Y-75350000D01*
X80660000Y-71670512D01*
X92959783Y-71670512D01*
X93001213Y-71950130D01*
X93096397Y-72216292D01*
X93163329Y-72341514D01*
X93407298Y-72413097D01*
X94220395Y-71600000D01*
X93407298Y-70786903D01*
X93163329Y-70858486D01*
X93042429Y-71113996D01*
X92973700Y-71388184D01*
X92959783Y-71670512D01*
X80660000Y-71670512D01*
X80660000Y-70607298D01*
X93586903Y-70607298D01*
X94400000Y-71420395D01*
X94414143Y-71406253D01*
X94593748Y-71585858D01*
X94579605Y-71600000D01*
X94593748Y-71614143D01*
X94414143Y-71793748D01*
X94400000Y-71779605D01*
X93586903Y-72592702D01*
X93658486Y-72836671D01*
X93913996Y-72957571D01*
X94188184Y-73026300D01*
X94470512Y-73040217D01*
X94750130Y-72998787D01*
X95016292Y-72903603D01*
X95138309Y-72838384D01*
X95148815Y-72851185D01*
X95245506Y-72930537D01*
X95355820Y-72989502D01*
X95475518Y-73025812D01*
X95600000Y-73038072D01*
X97200000Y-73038072D01*
X97324482Y-73025812D01*
X97444180Y-72989502D01*
X97554494Y-72930537D01*
X97651185Y-72851185D01*
X97730537Y-72754494D01*
X97789502Y-72644180D01*
X97825812Y-72524482D01*
X97838072Y-72400000D01*
X109961928Y-72400000D01*
X109961928Y-74000000D01*
X109974188Y-74124482D01*
X110010498Y-74244180D01*
X110069463Y-74354494D01*
X110148815Y-74451185D01*
X110245506Y-74530537D01*
X110355820Y-74589502D01*
X110475518Y-74625812D01*
X110600000Y-74638072D01*
X112200000Y-74638072D01*
X112324482Y-74625812D01*
X112444180Y-74589502D01*
X112554494Y-74530537D01*
X112651185Y-74451185D01*
X112661807Y-74438242D01*
X112913996Y-74557571D01*
X113188184Y-74626300D01*
X113470512Y-74640217D01*
X113750130Y-74598787D01*
X114016292Y-74503603D01*
X114141514Y-74436671D01*
X114213097Y-74192702D01*
X113400000Y-73379605D01*
X113385858Y-73393748D01*
X113206253Y-73214143D01*
X113220395Y-73200000D01*
X113579605Y-73200000D01*
X114392702Y-74013097D01*
X114636671Y-73941514D01*
X114757571Y-73686004D01*
X114826300Y-73411816D01*
X114840217Y-73129488D01*
X114798787Y-72849870D01*
X114703603Y-72583708D01*
X114636671Y-72458486D01*
X114392702Y-72386903D01*
X113579605Y-73200000D01*
X113220395Y-73200000D01*
X113206253Y-73185858D01*
X113385858Y-73006253D01*
X113400000Y-73020395D01*
X114213097Y-72207298D01*
X114141514Y-71963329D01*
X113886004Y-71842429D01*
X113611816Y-71773700D01*
X113329488Y-71759783D01*
X113049870Y-71801213D01*
X112783708Y-71896397D01*
X112661691Y-71961616D01*
X112651185Y-71948815D01*
X112554494Y-71869463D01*
X112444180Y-71810498D01*
X112324482Y-71774188D01*
X112200000Y-71761928D01*
X110600000Y-71761928D01*
X110475518Y-71774188D01*
X110355820Y-71810498D01*
X110245506Y-71869463D01*
X110148815Y-71948815D01*
X110069463Y-72045506D01*
X110010498Y-72155820D01*
X109974188Y-72275518D01*
X109961928Y-72400000D01*
X97838072Y-72400000D01*
X97838072Y-70800000D01*
X97825812Y-70675518D01*
X97789502Y-70555820D01*
X97730537Y-70445506D01*
X97651185Y-70348815D01*
X97554494Y-70269463D01*
X97444180Y-70210498D01*
X97324482Y-70174188D01*
X97200000Y-70161928D01*
X95600000Y-70161928D01*
X95475518Y-70174188D01*
X95355820Y-70210498D01*
X95245506Y-70269463D01*
X95148815Y-70348815D01*
X95138193Y-70361758D01*
X94886004Y-70242429D01*
X94611816Y-70173700D01*
X94329488Y-70159783D01*
X94049870Y-70201213D01*
X93783708Y-70296397D01*
X93658486Y-70363329D01*
X93586903Y-70607298D01*
X80660000Y-70607298D01*
X80660000Y-64450000D01*
X99111928Y-64450000D01*
X99124188Y-64574482D01*
X99160498Y-64694180D01*
X99219463Y-64804494D01*
X99298815Y-64901185D01*
X99395506Y-64980537D01*
X99505820Y-65039502D01*
X99625518Y-65075812D01*
X99750000Y-65088072D01*
X100314250Y-65085000D01*
X100473000Y-64926250D01*
X100473000Y-63727000D01*
X99273750Y-63727000D01*
X99115000Y-63885750D01*
X99111928Y-64450000D01*
X80660000Y-64450000D01*
X80660000Y-62750000D01*
X99111928Y-62750000D01*
X99115000Y-63314250D01*
X99273750Y-63473000D01*
X100473000Y-63473000D01*
X100473000Y-62273750D01*
X100727000Y-62273750D01*
X100727000Y-63473000D01*
X100747000Y-63473000D01*
X100747000Y-63727000D01*
X100727000Y-63727000D01*
X100727000Y-64926250D01*
X100885750Y-65085000D01*
X101450000Y-65088072D01*
X101574482Y-65075812D01*
X101694180Y-65039502D01*
X101804494Y-64980537D01*
X101901185Y-64901185D01*
X101980537Y-64804494D01*
X102039502Y-64694180D01*
X102061513Y-64621620D01*
X102193368Y-64753475D01*
X102436589Y-64915990D01*
X102706842Y-65027932D01*
X102993740Y-65085000D01*
X103286260Y-65085000D01*
X103573158Y-65027932D01*
X103843411Y-64915990D01*
X104086632Y-64753475D01*
X104293475Y-64546632D01*
X104410000Y-64372240D01*
X104526525Y-64546632D01*
X104733368Y-64753475D01*
X104976589Y-64915990D01*
X105246842Y-65027932D01*
X105533740Y-65085000D01*
X105826260Y-65085000D01*
X106113158Y-65027932D01*
X106383411Y-64915990D01*
X106626632Y-64753475D01*
X106833475Y-64546632D01*
X106955195Y-64364466D01*
X107024822Y-64481355D01*
X107219731Y-64697588D01*
X107453080Y-64871641D01*
X107715901Y-64996825D01*
X107863110Y-65041476D01*
X108093000Y-64920155D01*
X108093000Y-63727000D01*
X108347000Y-63727000D01*
X108347000Y-64920155D01*
X108576890Y-65041476D01*
X108724099Y-64996825D01*
X108986920Y-64871641D01*
X109220269Y-64697588D01*
X109415178Y-64481355D01*
X109564157Y-64231252D01*
X109661481Y-63956891D01*
X109540814Y-63727000D01*
X108347000Y-63727000D01*
X108093000Y-63727000D01*
X108073000Y-63727000D01*
X108073000Y-63473000D01*
X108093000Y-63473000D01*
X108093000Y-62279845D01*
X108347000Y-62279845D01*
X108347000Y-63473000D01*
X109540814Y-63473000D01*
X109661481Y-63243109D01*
X109564157Y-62968748D01*
X109415178Y-62718645D01*
X109220269Y-62502412D01*
X108986920Y-62328359D01*
X108724099Y-62203175D01*
X108576890Y-62158524D01*
X108347000Y-62279845D01*
X108093000Y-62279845D01*
X107863110Y-62158524D01*
X107715901Y-62203175D01*
X107453080Y-62328359D01*
X107219731Y-62502412D01*
X107024822Y-62718645D01*
X106955195Y-62835534D01*
X106833475Y-62653368D01*
X106626632Y-62446525D01*
X106383411Y-62284010D01*
X106113158Y-62172068D01*
X105826260Y-62115000D01*
X105533740Y-62115000D01*
X105246842Y-62172068D01*
X104976589Y-62284010D01*
X104733368Y-62446525D01*
X104526525Y-62653368D01*
X104410000Y-62827760D01*
X104293475Y-62653368D01*
X104086632Y-62446525D01*
X103843411Y-62284010D01*
X103573158Y-62172068D01*
X103286260Y-62115000D01*
X102993740Y-62115000D01*
X102706842Y-62172068D01*
X102436589Y-62284010D01*
X102193368Y-62446525D01*
X102061513Y-62578380D01*
X102039502Y-62505820D01*
X101980537Y-62395506D01*
X101901185Y-62298815D01*
X101804494Y-62219463D01*
X101694180Y-62160498D01*
X101574482Y-62124188D01*
X101450000Y-62111928D01*
X100885750Y-62115000D01*
X100727000Y-62273750D01*
X100473000Y-62273750D01*
X100314250Y-62115000D01*
X99750000Y-62111928D01*
X99625518Y-62124188D01*
X99505820Y-62160498D01*
X99395506Y-62219463D01*
X99298815Y-62298815D01*
X99219463Y-62395506D01*
X99160498Y-62505820D01*
X99124188Y-62625518D01*
X99111928Y-62750000D01*
X80660000Y-62750000D01*
X80660000Y-58660000D01*
X129340000Y-58660000D01*
X129340001Y-107340000D01*
G37*
%TD.AperFunction*%
%TD*%
M02*
