%TF.GenerationSoftware,KiCad,Pcbnew,5.1.9-73d0e3b20d~88~ubuntu20.04.1*%
%TF.CreationDate,2021-02-20T23:14:02+01:00*%
%TF.ProjectId,attiny-214-414-814-proto,61747469-6e79-42d3-9231-342d3431342d,rev?*%
%TF.SameCoordinates,Original*%
%TF.FileFunction,Legend,Top*%
%TF.FilePolarity,Positive*%
%FSLAX46Y46*%
G04 Gerber Fmt 4.6, Leading zero omitted, Abs format (unit mm)*
G04 Created by KiCad (PCBNEW 5.1.9-73d0e3b20d~88~ubuntu20.04.1) date 2021-02-20 23:14:02*
%MOMM*%
%LPD*%
G01*
G04 APERTURE LIST*
%ADD10C,0.150000*%
%ADD11C,0.120000*%
G04 APERTURE END LIST*
D10*
X117795238Y-61141666D02*
X118271428Y-61141666D01*
X117700000Y-61427380D02*
X118033333Y-60427380D01*
X118366666Y-61427380D01*
X118557142Y-60427380D02*
X119128571Y-60427380D01*
X118842857Y-61427380D02*
X118842857Y-60427380D01*
X119319047Y-60760714D02*
X119700000Y-60760714D01*
X119461904Y-60427380D02*
X119461904Y-61284523D01*
X119509523Y-61379761D01*
X119604761Y-61427380D01*
X119700000Y-61427380D01*
X120033333Y-61427380D02*
X120033333Y-60760714D01*
X120033333Y-60427380D02*
X119985714Y-60475000D01*
X120033333Y-60522619D01*
X120080952Y-60475000D01*
X120033333Y-60427380D01*
X120033333Y-60522619D01*
X120509523Y-60760714D02*
X120509523Y-61427380D01*
X120509523Y-60855952D02*
X120557142Y-60808333D01*
X120652380Y-60760714D01*
X120795238Y-60760714D01*
X120890476Y-60808333D01*
X120938095Y-60903571D01*
X120938095Y-61427380D01*
X121319047Y-60760714D02*
X121557142Y-61427380D01*
X121795238Y-60760714D02*
X121557142Y-61427380D01*
X121461904Y-61665476D01*
X121414285Y-61713095D01*
X121319047Y-61760714D01*
X122080952Y-60427380D02*
X122747619Y-61427380D01*
X122747619Y-60427380D02*
X122080952Y-61427380D01*
X123652380Y-61427380D02*
X123080952Y-61427380D01*
X123366666Y-61427380D02*
X123366666Y-60427380D01*
X123271428Y-60570238D01*
X123176190Y-60665476D01*
X123080952Y-60713095D01*
X124509523Y-60760714D02*
X124509523Y-61427380D01*
X124271428Y-60379761D02*
X124033333Y-61094047D01*
X124652380Y-61094047D01*
X116985714Y-62410714D02*
X116985714Y-63410714D01*
X116985714Y-62458333D02*
X117080952Y-62410714D01*
X117271428Y-62410714D01*
X117366666Y-62458333D01*
X117414285Y-62505952D01*
X117461904Y-62601190D01*
X117461904Y-62886904D01*
X117414285Y-62982142D01*
X117366666Y-63029761D01*
X117271428Y-63077380D01*
X117080952Y-63077380D01*
X116985714Y-63029761D01*
X117890476Y-63077380D02*
X117890476Y-62410714D01*
X117890476Y-62601190D02*
X117938095Y-62505952D01*
X117985714Y-62458333D01*
X118080952Y-62410714D01*
X118176190Y-62410714D01*
X118652380Y-63077380D02*
X118557142Y-63029761D01*
X118509523Y-62982142D01*
X118461904Y-62886904D01*
X118461904Y-62601190D01*
X118509523Y-62505952D01*
X118557142Y-62458333D01*
X118652380Y-62410714D01*
X118795238Y-62410714D01*
X118890476Y-62458333D01*
X118938095Y-62505952D01*
X118985714Y-62601190D01*
X118985714Y-62886904D01*
X118938095Y-62982142D01*
X118890476Y-63029761D01*
X118795238Y-63077380D01*
X118652380Y-63077380D01*
X119271428Y-62410714D02*
X119652380Y-62410714D01*
X119414285Y-62077380D02*
X119414285Y-62934523D01*
X119461904Y-63029761D01*
X119557142Y-63077380D01*
X119652380Y-63077380D01*
X120128571Y-63077380D02*
X120033333Y-63029761D01*
X119985714Y-62982142D01*
X119938095Y-62886904D01*
X119938095Y-62601190D01*
X119985714Y-62505952D01*
X120033333Y-62458333D01*
X120128571Y-62410714D01*
X120271428Y-62410714D01*
X120366666Y-62458333D01*
X120414285Y-62505952D01*
X120461904Y-62601190D01*
X120461904Y-62886904D01*
X120414285Y-62982142D01*
X120366666Y-63029761D01*
X120271428Y-63077380D01*
X120128571Y-63077380D01*
X121652380Y-63077380D02*
X121652380Y-62077380D01*
X121652380Y-62458333D02*
X121747619Y-62410714D01*
X121938095Y-62410714D01*
X122033333Y-62458333D01*
X122080952Y-62505952D01*
X122128571Y-62601190D01*
X122128571Y-62886904D01*
X122080952Y-62982142D01*
X122033333Y-63029761D01*
X121938095Y-63077380D01*
X121747619Y-63077380D01*
X121652380Y-63029761D01*
X122700000Y-63077380D02*
X122604761Y-63029761D01*
X122557142Y-62982142D01*
X122509523Y-62886904D01*
X122509523Y-62601190D01*
X122557142Y-62505952D01*
X122604761Y-62458333D01*
X122700000Y-62410714D01*
X122842857Y-62410714D01*
X122938095Y-62458333D01*
X122985714Y-62505952D01*
X123033333Y-62601190D01*
X123033333Y-62886904D01*
X122985714Y-62982142D01*
X122938095Y-63029761D01*
X122842857Y-63077380D01*
X122700000Y-63077380D01*
X123890476Y-63077380D02*
X123890476Y-62553571D01*
X123842857Y-62458333D01*
X123747619Y-62410714D01*
X123557142Y-62410714D01*
X123461904Y-62458333D01*
X123890476Y-63029761D02*
X123795238Y-63077380D01*
X123557142Y-63077380D01*
X123461904Y-63029761D01*
X123414285Y-62934523D01*
X123414285Y-62839285D01*
X123461904Y-62744047D01*
X123557142Y-62696428D01*
X123795238Y-62696428D01*
X123890476Y-62648809D01*
X124366666Y-63077380D02*
X124366666Y-62410714D01*
X124366666Y-62601190D02*
X124414285Y-62505952D01*
X124461904Y-62458333D01*
X124557142Y-62410714D01*
X124652380Y-62410714D01*
X125414285Y-63077380D02*
X125414285Y-62077380D01*
X125414285Y-63029761D02*
X125319047Y-63077380D01*
X125128571Y-63077380D01*
X125033333Y-63029761D01*
X124985714Y-62982142D01*
X124938095Y-62886904D01*
X124938095Y-62601190D01*
X124985714Y-62505952D01*
X125033333Y-62458333D01*
X125128571Y-62410714D01*
X125319047Y-62410714D01*
X125414285Y-62458333D01*
X114604761Y-104928571D02*
X114271428Y-104928571D01*
X114271428Y-105452380D02*
X114271428Y-104452380D01*
X114747619Y-104452380D01*
X114985714Y-104452380D02*
X115557142Y-104452380D01*
X115271428Y-105452380D02*
X115271428Y-104452380D01*
X115890476Y-105452380D02*
X115890476Y-104452380D01*
X116128571Y-104452380D01*
X116271428Y-104500000D01*
X116366666Y-104595238D01*
X116414285Y-104690476D01*
X116461904Y-104880952D01*
X116461904Y-105023809D01*
X116414285Y-105214285D01*
X116366666Y-105309523D01*
X116271428Y-105404761D01*
X116128571Y-105452380D01*
X115890476Y-105452380D01*
X116890476Y-105452380D02*
X116890476Y-104452380D01*
X118128571Y-104452380D02*
X118128571Y-105261904D01*
X118176190Y-105357142D01*
X118223809Y-105404761D01*
X118319047Y-105452380D01*
X118509523Y-105452380D01*
X118604761Y-105404761D01*
X118652380Y-105357142D01*
X118700000Y-105261904D01*
X118700000Y-104452380D01*
X119128571Y-105166666D02*
X119604761Y-105166666D01*
X119033333Y-105452380D02*
X119366666Y-104452380D01*
X119700000Y-105452380D01*
X120604761Y-105452380D02*
X120271428Y-104976190D01*
X120033333Y-105452380D02*
X120033333Y-104452380D01*
X120414285Y-104452380D01*
X120509523Y-104500000D01*
X120557142Y-104547619D01*
X120604761Y-104642857D01*
X120604761Y-104785714D01*
X120557142Y-104880952D01*
X120509523Y-104928571D01*
X120414285Y-104976190D01*
X120033333Y-104976190D01*
X120890476Y-104452380D02*
X121461904Y-104452380D01*
X121176190Y-105452380D02*
X121176190Y-104452380D01*
X122985714Y-105404761D02*
X122890476Y-105452380D01*
X122700000Y-105452380D01*
X122604761Y-105404761D01*
X122557142Y-105357142D01*
X122509523Y-105261904D01*
X122509523Y-104976190D01*
X122557142Y-104880952D01*
X122604761Y-104833333D01*
X122700000Y-104785714D01*
X122890476Y-104785714D01*
X122985714Y-104833333D01*
X123842857Y-105452380D02*
X123842857Y-104928571D01*
X123795238Y-104833333D01*
X123700000Y-104785714D01*
X123509523Y-104785714D01*
X123414285Y-104833333D01*
X123842857Y-105404761D02*
X123747619Y-105452380D01*
X123509523Y-105452380D01*
X123414285Y-105404761D01*
X123366666Y-105309523D01*
X123366666Y-105214285D01*
X123414285Y-105119047D01*
X123509523Y-105071428D01*
X123747619Y-105071428D01*
X123842857Y-105023809D01*
X124319047Y-105452380D02*
X124319047Y-104452380D01*
X124319047Y-104833333D02*
X124414285Y-104785714D01*
X124604761Y-104785714D01*
X124700000Y-104833333D01*
X124747619Y-104880952D01*
X124795238Y-104976190D01*
X124795238Y-105261904D01*
X124747619Y-105357142D01*
X124700000Y-105404761D01*
X124604761Y-105452380D01*
X124414285Y-105452380D01*
X124319047Y-105404761D01*
X125366666Y-105452380D02*
X125271428Y-105404761D01*
X125223809Y-105309523D01*
X125223809Y-104452380D01*
X126128571Y-105404761D02*
X126033333Y-105452380D01*
X125842857Y-105452380D01*
X125747619Y-105404761D01*
X125700000Y-105309523D01*
X125700000Y-104928571D01*
X125747619Y-104833333D01*
X125842857Y-104785714D01*
X126033333Y-104785714D01*
X126128571Y-104833333D01*
X126176190Y-104928571D01*
X126176190Y-105023809D01*
X125700000Y-105119047D01*
X109852380Y-102595238D02*
X109376190Y-102928571D01*
X109852380Y-103166666D02*
X108852380Y-103166666D01*
X108852380Y-102785714D01*
X108900000Y-102690476D01*
X108947619Y-102642857D01*
X109042857Y-102595238D01*
X109185714Y-102595238D01*
X109280952Y-102642857D01*
X109328571Y-102690476D01*
X109376190Y-102785714D01*
X109376190Y-103166666D01*
X109852380Y-102261904D02*
X109185714Y-101738095D01*
X109185714Y-102261904D02*
X109852380Y-101738095D01*
X109852380Y-101357142D02*
X108852380Y-101357142D01*
X108852380Y-101119047D01*
X108900000Y-100976190D01*
X108995238Y-100880952D01*
X109090476Y-100833333D01*
X109280952Y-100785714D01*
X109423809Y-100785714D01*
X109614285Y-100833333D01*
X109709523Y-100880952D01*
X109804761Y-100976190D01*
X109852380Y-101119047D01*
X109852380Y-101357142D01*
X106252380Y-103190476D02*
X106252380Y-102619047D01*
X107252380Y-102904761D02*
X106252380Y-102904761D01*
X107252380Y-102380952D02*
X106585714Y-101857142D01*
X106585714Y-102380952D02*
X107252380Y-101857142D01*
X107252380Y-101476190D02*
X106252380Y-101476190D01*
X106252380Y-101238095D01*
X106300000Y-101095238D01*
X106395238Y-101000000D01*
X106490476Y-100952380D01*
X106680952Y-100904761D01*
X106823809Y-100904761D01*
X107014285Y-100952380D01*
X107109523Y-101000000D01*
X107204761Y-101095238D01*
X107252380Y-101238095D01*
X107252380Y-101476190D01*
X102714285Y-102671428D02*
X103476190Y-102671428D01*
X103095238Y-103052380D02*
X103095238Y-102290476D01*
X104428571Y-102052380D02*
X103952380Y-102052380D01*
X103904761Y-102528571D01*
X103952380Y-102480952D01*
X104047619Y-102433333D01*
X104285714Y-102433333D01*
X104380952Y-102480952D01*
X104428571Y-102528571D01*
X104476190Y-102623809D01*
X104476190Y-102861904D01*
X104428571Y-102957142D01*
X104380952Y-103004761D01*
X104285714Y-103052380D01*
X104047619Y-103052380D01*
X103952380Y-103004761D01*
X103904761Y-102957142D01*
X104761904Y-102052380D02*
X105095238Y-103052380D01*
X105428571Y-102052380D01*
X98238095Y-101900000D02*
X98142857Y-101852380D01*
X98000000Y-101852380D01*
X97857142Y-101900000D01*
X97761904Y-101995238D01*
X97714285Y-102090476D01*
X97666666Y-102280952D01*
X97666666Y-102423809D01*
X97714285Y-102614285D01*
X97761904Y-102709523D01*
X97857142Y-102804761D01*
X98000000Y-102852380D01*
X98095238Y-102852380D01*
X98238095Y-102804761D01*
X98285714Y-102757142D01*
X98285714Y-102423809D01*
X98095238Y-102423809D01*
X98714285Y-102852380D02*
X98714285Y-101852380D01*
X99285714Y-102852380D01*
X99285714Y-101852380D01*
X99761904Y-102852380D02*
X99761904Y-101852380D01*
X100000000Y-101852380D01*
X100142857Y-101900000D01*
X100238095Y-101995238D01*
X100285714Y-102090476D01*
X100333333Y-102280952D01*
X100333333Y-102423809D01*
X100285714Y-102614285D01*
X100238095Y-102709523D01*
X100142857Y-102804761D01*
X100000000Y-102852380D01*
X99761904Y-102852380D01*
X85676190Y-99652380D02*
X85676190Y-100461904D01*
X85723809Y-100557142D01*
X85771428Y-100604761D01*
X85866666Y-100652380D01*
X86057142Y-100652380D01*
X86152380Y-100604761D01*
X86200000Y-100557142D01*
X86247619Y-100461904D01*
X86247619Y-99652380D01*
X86723809Y-100652380D02*
X86723809Y-99652380D01*
X87104761Y-99652380D01*
X87200000Y-99700000D01*
X87247619Y-99747619D01*
X87295238Y-99842857D01*
X87295238Y-99985714D01*
X87247619Y-100080952D01*
X87200000Y-100128571D01*
X87104761Y-100176190D01*
X86723809Y-100176190D01*
X87723809Y-100652380D02*
X87723809Y-99652380D01*
X87961904Y-99652380D01*
X88104761Y-99700000D01*
X88200000Y-99795238D01*
X88247619Y-99890476D01*
X88295238Y-100080952D01*
X88295238Y-100223809D01*
X88247619Y-100414285D01*
X88200000Y-100509523D01*
X88104761Y-100604761D01*
X87961904Y-100652380D01*
X87723809Y-100652380D01*
X88723809Y-100652380D02*
X88723809Y-99652380D01*
X86838095Y-104500000D02*
X86742857Y-104452380D01*
X86600000Y-104452380D01*
X86457142Y-104500000D01*
X86361904Y-104595238D01*
X86314285Y-104690476D01*
X86266666Y-104880952D01*
X86266666Y-105023809D01*
X86314285Y-105214285D01*
X86361904Y-105309523D01*
X86457142Y-105404761D01*
X86600000Y-105452380D01*
X86695238Y-105452380D01*
X86838095Y-105404761D01*
X86885714Y-105357142D01*
X86885714Y-105023809D01*
X86695238Y-105023809D01*
X87314285Y-105452380D02*
X87314285Y-104452380D01*
X87885714Y-105452380D01*
X87885714Y-104452380D01*
X88361904Y-105452380D02*
X88361904Y-104452380D01*
X88600000Y-104452380D01*
X88742857Y-104500000D01*
X88838095Y-104595238D01*
X88885714Y-104690476D01*
X88933333Y-104880952D01*
X88933333Y-105023809D01*
X88885714Y-105214285D01*
X88838095Y-105309523D01*
X88742857Y-105404761D01*
X88600000Y-105452380D01*
X88361904Y-105452380D01*
X86266666Y-102052380D02*
X86600000Y-103052380D01*
X86933333Y-102052380D01*
X87266666Y-103052380D02*
X87266666Y-102052380D01*
X87504761Y-102052380D01*
X87647619Y-102100000D01*
X87742857Y-102195238D01*
X87790476Y-102290476D01*
X87838095Y-102480952D01*
X87838095Y-102623809D01*
X87790476Y-102814285D01*
X87742857Y-102909523D01*
X87647619Y-103004761D01*
X87504761Y-103052380D01*
X87266666Y-103052380D01*
X88266666Y-103052380D02*
X88266666Y-102052380D01*
X88504761Y-102052380D01*
X88647619Y-102100000D01*
X88742857Y-102195238D01*
X88790476Y-102290476D01*
X88838095Y-102480952D01*
X88838095Y-102623809D01*
X88790476Y-102814285D01*
X88742857Y-102909523D01*
X88647619Y-103004761D01*
X88504761Y-103052380D01*
X88266666Y-103052380D01*
X105361904Y-61409523D02*
X106161904Y-61142857D01*
X105361904Y-60876190D01*
X105361904Y-60457142D02*
X105361904Y-60304761D01*
X105400000Y-60228571D01*
X105476190Y-60152380D01*
X105628571Y-60114285D01*
X105895238Y-60114285D01*
X106047619Y-60152380D01*
X106123809Y-60228571D01*
X106161904Y-60304761D01*
X106161904Y-60457142D01*
X106123809Y-60533333D01*
X106047619Y-60609523D01*
X105895238Y-60647619D01*
X105628571Y-60647619D01*
X105476190Y-60609523D01*
X105400000Y-60533333D01*
X105361904Y-60457142D01*
X105361904Y-59771428D02*
X106009523Y-59771428D01*
X106085714Y-59733333D01*
X106123809Y-59695238D01*
X106161904Y-59619047D01*
X106161904Y-59466666D01*
X106123809Y-59390476D01*
X106085714Y-59352380D01*
X106009523Y-59314285D01*
X105361904Y-59314285D01*
X105361904Y-59047619D02*
X105361904Y-58590476D01*
X106161904Y-58819047D02*
X105361904Y-58819047D01*
X102652380Y-61295238D02*
X103652380Y-60961904D01*
X102652380Y-60628571D01*
X103652380Y-60295238D02*
X102652380Y-60295238D01*
X103652380Y-59819047D02*
X102652380Y-59819047D01*
X103652380Y-59247619D01*
X102652380Y-59247619D01*
X107900000Y-60761904D02*
X107852380Y-60857142D01*
X107852380Y-61000000D01*
X107900000Y-61142857D01*
X107995238Y-61238095D01*
X108090476Y-61285714D01*
X108280952Y-61333333D01*
X108423809Y-61333333D01*
X108614285Y-61285714D01*
X108709523Y-61238095D01*
X108804761Y-61142857D01*
X108852380Y-61000000D01*
X108852380Y-60904761D01*
X108804761Y-60761904D01*
X108757142Y-60714285D01*
X108423809Y-60714285D01*
X108423809Y-60904761D01*
X108852380Y-60285714D02*
X107852380Y-60285714D01*
X108852380Y-59714285D01*
X107852380Y-59714285D01*
X108852380Y-59238095D02*
X107852380Y-59238095D01*
X107852380Y-59000000D01*
X107900000Y-58857142D01*
X107995238Y-58761904D01*
X108090476Y-58714285D01*
X108280952Y-58666666D01*
X108423809Y-58666666D01*
X108614285Y-58714285D01*
X108709523Y-58761904D01*
X108804761Y-58857142D01*
X108852380Y-59000000D01*
X108852380Y-59238095D01*
X100100000Y-60761904D02*
X100052380Y-60857142D01*
X100052380Y-61000000D01*
X100100000Y-61142857D01*
X100195238Y-61238095D01*
X100290476Y-61285714D01*
X100480952Y-61333333D01*
X100623809Y-61333333D01*
X100814285Y-61285714D01*
X100909523Y-61238095D01*
X101004761Y-61142857D01*
X101052380Y-61000000D01*
X101052380Y-60904761D01*
X101004761Y-60761904D01*
X100957142Y-60714285D01*
X100623809Y-60714285D01*
X100623809Y-60904761D01*
X101052380Y-60285714D02*
X100052380Y-60285714D01*
X101052380Y-59714285D01*
X100052380Y-59714285D01*
X101052380Y-59238095D02*
X100052380Y-59238095D01*
X100052380Y-59000000D01*
X100100000Y-58857142D01*
X100195238Y-58761904D01*
X100290476Y-58714285D01*
X100480952Y-58666666D01*
X100623809Y-58666666D01*
X100814285Y-58714285D01*
X100909523Y-58761904D01*
X101004761Y-58857142D01*
X101052380Y-59000000D01*
X101052380Y-59238095D01*
X121161904Y-94252380D02*
X121161904Y-93252380D01*
X121542857Y-93252380D01*
X121638095Y-93300000D01*
X121685714Y-93347619D01*
X121733333Y-93442857D01*
X121733333Y-93585714D01*
X121685714Y-93680952D01*
X121638095Y-93728571D01*
X121542857Y-93776190D01*
X121161904Y-93776190D01*
X122495238Y-93728571D02*
X122638095Y-93776190D01*
X122685714Y-93823809D01*
X122733333Y-93919047D01*
X122733333Y-94061904D01*
X122685714Y-94157142D01*
X122638095Y-94204761D01*
X122542857Y-94252380D01*
X122161904Y-94252380D01*
X122161904Y-93252380D01*
X122495238Y-93252380D01*
X122590476Y-93300000D01*
X122638095Y-93347619D01*
X122685714Y-93442857D01*
X122685714Y-93538095D01*
X122638095Y-93633333D01*
X122590476Y-93680952D01*
X122495238Y-93728571D01*
X122161904Y-93728571D01*
X123685714Y-94252380D02*
X123114285Y-94252380D01*
X123400000Y-94252380D02*
X123400000Y-93252380D01*
X123304761Y-93395238D01*
X123209523Y-93490476D01*
X123114285Y-93538095D01*
X121161904Y-91852380D02*
X121161904Y-90852380D01*
X121542857Y-90852380D01*
X121638095Y-90900000D01*
X121685714Y-90947619D01*
X121733333Y-91042857D01*
X121733333Y-91185714D01*
X121685714Y-91280952D01*
X121638095Y-91328571D01*
X121542857Y-91376190D01*
X121161904Y-91376190D01*
X122495238Y-91328571D02*
X122638095Y-91376190D01*
X122685714Y-91423809D01*
X122733333Y-91519047D01*
X122733333Y-91661904D01*
X122685714Y-91757142D01*
X122638095Y-91804761D01*
X122542857Y-91852380D01*
X122161904Y-91852380D01*
X122161904Y-90852380D01*
X122495238Y-90852380D01*
X122590476Y-90900000D01*
X122638095Y-90947619D01*
X122685714Y-91042857D01*
X122685714Y-91138095D01*
X122638095Y-91233333D01*
X122590476Y-91280952D01*
X122495238Y-91328571D01*
X122161904Y-91328571D01*
X123352380Y-90852380D02*
X123447619Y-90852380D01*
X123542857Y-90900000D01*
X123590476Y-90947619D01*
X123638095Y-91042857D01*
X123685714Y-91233333D01*
X123685714Y-91471428D01*
X123638095Y-91661904D01*
X123590476Y-91757142D01*
X123542857Y-91804761D01*
X123447619Y-91852380D01*
X123352380Y-91852380D01*
X123257142Y-91804761D01*
X123209523Y-91757142D01*
X123161904Y-91661904D01*
X123114285Y-91471428D01*
X123114285Y-91233333D01*
X123161904Y-91042857D01*
X123209523Y-90947619D01*
X123257142Y-90900000D01*
X123352380Y-90852380D01*
X121316666Y-89183333D02*
X121283333Y-89150000D01*
X121216666Y-89050000D01*
X121183333Y-88983333D01*
X121150000Y-88883333D01*
X121116666Y-88716666D01*
X121116666Y-88583333D01*
X121150000Y-88416666D01*
X121183333Y-88316666D01*
X121216666Y-88250000D01*
X121283333Y-88150000D01*
X121316666Y-88116666D01*
X121583333Y-88916666D02*
X121583333Y-88216666D01*
X121850000Y-88216666D01*
X121916666Y-88250000D01*
X121950000Y-88283333D01*
X121983333Y-88350000D01*
X121983333Y-88450000D01*
X121950000Y-88516666D01*
X121916666Y-88550000D01*
X121850000Y-88583333D01*
X121583333Y-88583333D01*
X122250000Y-88716666D02*
X122583333Y-88716666D01*
X122183333Y-88916666D02*
X122416666Y-88216666D01*
X122650000Y-88916666D01*
X123016666Y-88216666D02*
X123083333Y-88216666D01*
X123150000Y-88250000D01*
X123183333Y-88283333D01*
X123216666Y-88350000D01*
X123250000Y-88483333D01*
X123250000Y-88650000D01*
X123216666Y-88783333D01*
X123183333Y-88850000D01*
X123150000Y-88883333D01*
X123083333Y-88916666D01*
X123016666Y-88916666D01*
X122950000Y-88883333D01*
X122916666Y-88850000D01*
X122883333Y-88783333D01*
X122850000Y-88650000D01*
X122850000Y-88483333D01*
X122883333Y-88350000D01*
X122916666Y-88283333D01*
X122950000Y-88250000D01*
X123016666Y-88216666D01*
X123483333Y-89183333D02*
X123516666Y-89150000D01*
X123583333Y-89050000D01*
X123616666Y-88983333D01*
X123650000Y-88883333D01*
X123683333Y-88716666D01*
X123683333Y-88583333D01*
X123650000Y-88416666D01*
X123616666Y-88316666D01*
X123583333Y-88250000D01*
X123516666Y-88150000D01*
X123483333Y-88116666D01*
X121233333Y-86652380D02*
X121233333Y-85652380D01*
X121614285Y-85652380D01*
X121709523Y-85700000D01*
X121757142Y-85747619D01*
X121804761Y-85842857D01*
X121804761Y-85985714D01*
X121757142Y-86080952D01*
X121709523Y-86128571D01*
X121614285Y-86176190D01*
X121233333Y-86176190D01*
X122185714Y-86366666D02*
X122661904Y-86366666D01*
X122090476Y-86652380D02*
X122423809Y-85652380D01*
X122757142Y-86652380D01*
X123614285Y-86652380D02*
X123042857Y-86652380D01*
X123328571Y-86652380D02*
X123328571Y-85652380D01*
X123233333Y-85795238D01*
X123138095Y-85890476D01*
X123042857Y-85938095D01*
X121233333Y-84052380D02*
X121233333Y-83052380D01*
X121614285Y-83052380D01*
X121709523Y-83100000D01*
X121757142Y-83147619D01*
X121804761Y-83242857D01*
X121804761Y-83385714D01*
X121757142Y-83480952D01*
X121709523Y-83528571D01*
X121614285Y-83576190D01*
X121233333Y-83576190D01*
X122185714Y-83766666D02*
X122661904Y-83766666D01*
X122090476Y-84052380D02*
X122423809Y-83052380D01*
X122757142Y-84052380D01*
X123042857Y-83147619D02*
X123090476Y-83100000D01*
X123185714Y-83052380D01*
X123423809Y-83052380D01*
X123519047Y-83100000D01*
X123566666Y-83147619D01*
X123614285Y-83242857D01*
X123614285Y-83338095D01*
X123566666Y-83480952D01*
X122995238Y-84052380D01*
X123614285Y-84052380D01*
X121233333Y-81452380D02*
X121233333Y-80452380D01*
X121614285Y-80452380D01*
X121709523Y-80500000D01*
X121757142Y-80547619D01*
X121804761Y-80642857D01*
X121804761Y-80785714D01*
X121757142Y-80880952D01*
X121709523Y-80928571D01*
X121614285Y-80976190D01*
X121233333Y-80976190D01*
X122185714Y-81166666D02*
X122661904Y-81166666D01*
X122090476Y-81452380D02*
X122423809Y-80452380D01*
X122757142Y-81452380D01*
X122995238Y-80452380D02*
X123614285Y-80452380D01*
X123280952Y-80833333D01*
X123423809Y-80833333D01*
X123519047Y-80880952D01*
X123566666Y-80928571D01*
X123614285Y-81023809D01*
X123614285Y-81261904D01*
X123566666Y-81357142D01*
X123519047Y-81404761D01*
X123423809Y-81452380D01*
X123138095Y-81452380D01*
X123042857Y-81404761D01*
X122995238Y-81357142D01*
X121266666Y-78052380D02*
X121600000Y-79052380D01*
X121933333Y-78052380D01*
X122266666Y-79052380D02*
X122266666Y-78052380D01*
X122504761Y-78052380D01*
X122647619Y-78100000D01*
X122742857Y-78195238D01*
X122790476Y-78290476D01*
X122838095Y-78480952D01*
X122838095Y-78623809D01*
X122790476Y-78814285D01*
X122742857Y-78909523D01*
X122647619Y-79004761D01*
X122504761Y-79052380D01*
X122266666Y-79052380D01*
X123266666Y-79052380D02*
X123266666Y-78052380D01*
X123504761Y-78052380D01*
X123647619Y-78100000D01*
X123742857Y-78195238D01*
X123790476Y-78290476D01*
X123838095Y-78480952D01*
X123838095Y-78623809D01*
X123790476Y-78814285D01*
X123742857Y-78909523D01*
X123647619Y-79004761D01*
X123504761Y-79052380D01*
X123266666Y-79052380D01*
X121838095Y-75700000D02*
X121742857Y-75652380D01*
X121600000Y-75652380D01*
X121457142Y-75700000D01*
X121361904Y-75795238D01*
X121314285Y-75890476D01*
X121266666Y-76080952D01*
X121266666Y-76223809D01*
X121314285Y-76414285D01*
X121361904Y-76509523D01*
X121457142Y-76604761D01*
X121600000Y-76652380D01*
X121695238Y-76652380D01*
X121838095Y-76604761D01*
X121885714Y-76557142D01*
X121885714Y-76223809D01*
X121695238Y-76223809D01*
X122314285Y-76652380D02*
X122314285Y-75652380D01*
X122885714Y-76652380D01*
X122885714Y-75652380D01*
X123361904Y-76652380D02*
X123361904Y-75652380D01*
X123600000Y-75652380D01*
X123742857Y-75700000D01*
X123838095Y-75795238D01*
X123885714Y-75890476D01*
X123933333Y-76080952D01*
X123933333Y-76223809D01*
X123885714Y-76414285D01*
X123838095Y-76509523D01*
X123742857Y-76604761D01*
X123600000Y-76652380D01*
X123361904Y-76652380D01*
X86561904Y-94652380D02*
X86561904Y-93652380D01*
X86942857Y-93652380D01*
X87038095Y-93700000D01*
X87085714Y-93747619D01*
X87133333Y-93842857D01*
X87133333Y-93985714D01*
X87085714Y-94080952D01*
X87038095Y-94128571D01*
X86942857Y-94176190D01*
X86561904Y-94176190D01*
X87895238Y-94128571D02*
X88038095Y-94176190D01*
X88085714Y-94223809D01*
X88133333Y-94319047D01*
X88133333Y-94461904D01*
X88085714Y-94557142D01*
X88038095Y-94604761D01*
X87942857Y-94652380D01*
X87561904Y-94652380D01*
X87561904Y-93652380D01*
X87895238Y-93652380D01*
X87990476Y-93700000D01*
X88038095Y-93747619D01*
X88085714Y-93842857D01*
X88085714Y-93938095D01*
X88038095Y-94033333D01*
X87990476Y-94080952D01*
X87895238Y-94128571D01*
X87561904Y-94128571D01*
X88514285Y-93747619D02*
X88561904Y-93700000D01*
X88657142Y-93652380D01*
X88895238Y-93652380D01*
X88990476Y-93700000D01*
X89038095Y-93747619D01*
X89085714Y-93842857D01*
X89085714Y-93938095D01*
X89038095Y-94080952D01*
X88466666Y-94652380D01*
X89085714Y-94652380D01*
X86561904Y-92052380D02*
X86561904Y-91052380D01*
X86942857Y-91052380D01*
X87038095Y-91100000D01*
X87085714Y-91147619D01*
X87133333Y-91242857D01*
X87133333Y-91385714D01*
X87085714Y-91480952D01*
X87038095Y-91528571D01*
X86942857Y-91576190D01*
X86561904Y-91576190D01*
X87895238Y-91528571D02*
X88038095Y-91576190D01*
X88085714Y-91623809D01*
X88133333Y-91719047D01*
X88133333Y-91861904D01*
X88085714Y-91957142D01*
X88038095Y-92004761D01*
X87942857Y-92052380D01*
X87561904Y-92052380D01*
X87561904Y-91052380D01*
X87895238Y-91052380D01*
X87990476Y-91100000D01*
X88038095Y-91147619D01*
X88085714Y-91242857D01*
X88085714Y-91338095D01*
X88038095Y-91433333D01*
X87990476Y-91480952D01*
X87895238Y-91528571D01*
X87561904Y-91528571D01*
X88466666Y-91052380D02*
X89085714Y-91052380D01*
X88752380Y-91433333D01*
X88895238Y-91433333D01*
X88990476Y-91480952D01*
X89038095Y-91528571D01*
X89085714Y-91623809D01*
X89085714Y-91861904D01*
X89038095Y-91957142D01*
X88990476Y-92004761D01*
X88895238Y-92052380D01*
X88609523Y-92052380D01*
X88514285Y-92004761D01*
X88466666Y-91957142D01*
X86633333Y-89452380D02*
X86633333Y-88452380D01*
X87014285Y-88452380D01*
X87109523Y-88500000D01*
X87157142Y-88547619D01*
X87204761Y-88642857D01*
X87204761Y-88785714D01*
X87157142Y-88880952D01*
X87109523Y-88928571D01*
X87014285Y-88976190D01*
X86633333Y-88976190D01*
X87585714Y-89166666D02*
X88061904Y-89166666D01*
X87490476Y-89452380D02*
X87823809Y-88452380D01*
X88157142Y-89452380D01*
X88395238Y-88452380D02*
X89061904Y-88452380D01*
X88633333Y-89452380D01*
X86633333Y-86852380D02*
X86633333Y-85852380D01*
X87014285Y-85852380D01*
X87109523Y-85900000D01*
X87157142Y-85947619D01*
X87204761Y-86042857D01*
X87204761Y-86185714D01*
X87157142Y-86280952D01*
X87109523Y-86328571D01*
X87014285Y-86376190D01*
X86633333Y-86376190D01*
X87585714Y-86566666D02*
X88061904Y-86566666D01*
X87490476Y-86852380D02*
X87823809Y-85852380D01*
X88157142Y-86852380D01*
X88919047Y-85852380D02*
X88728571Y-85852380D01*
X88633333Y-85900000D01*
X88585714Y-85947619D01*
X88490476Y-86090476D01*
X88442857Y-86280952D01*
X88442857Y-86661904D01*
X88490476Y-86757142D01*
X88538095Y-86804761D01*
X88633333Y-86852380D01*
X88823809Y-86852380D01*
X88919047Y-86804761D01*
X88966666Y-86757142D01*
X89014285Y-86661904D01*
X89014285Y-86423809D01*
X88966666Y-86328571D01*
X88919047Y-86280952D01*
X88823809Y-86233333D01*
X88633333Y-86233333D01*
X88538095Y-86280952D01*
X88490476Y-86328571D01*
X88442857Y-86423809D01*
X86633333Y-84452380D02*
X86633333Y-83452380D01*
X87014285Y-83452380D01*
X87109523Y-83500000D01*
X87157142Y-83547619D01*
X87204761Y-83642857D01*
X87204761Y-83785714D01*
X87157142Y-83880952D01*
X87109523Y-83928571D01*
X87014285Y-83976190D01*
X86633333Y-83976190D01*
X87585714Y-84166666D02*
X88061904Y-84166666D01*
X87490476Y-84452380D02*
X87823809Y-83452380D01*
X88157142Y-84452380D01*
X88966666Y-83452380D02*
X88490476Y-83452380D01*
X88442857Y-83928571D01*
X88490476Y-83880952D01*
X88585714Y-83833333D01*
X88823809Y-83833333D01*
X88919047Y-83880952D01*
X88966666Y-83928571D01*
X89014285Y-84023809D01*
X89014285Y-84261904D01*
X88966666Y-84357142D01*
X88919047Y-84404761D01*
X88823809Y-84452380D01*
X88585714Y-84452380D01*
X88490476Y-84404761D01*
X88442857Y-84357142D01*
X86633333Y-81852380D02*
X86633333Y-80852380D01*
X87014285Y-80852380D01*
X87109523Y-80900000D01*
X87157142Y-80947619D01*
X87204761Y-81042857D01*
X87204761Y-81185714D01*
X87157142Y-81280952D01*
X87109523Y-81328571D01*
X87014285Y-81376190D01*
X86633333Y-81376190D01*
X87585714Y-81566666D02*
X88061904Y-81566666D01*
X87490476Y-81852380D02*
X87823809Y-80852380D01*
X88157142Y-81852380D01*
X88919047Y-81185714D02*
X88919047Y-81852380D01*
X88680952Y-80804761D02*
X88442857Y-81519047D01*
X89061904Y-81519047D01*
X86466666Y-78252380D02*
X86800000Y-79252380D01*
X87133333Y-78252380D01*
X87466666Y-79252380D02*
X87466666Y-78252380D01*
X87704761Y-78252380D01*
X87847619Y-78300000D01*
X87942857Y-78395238D01*
X87990476Y-78490476D01*
X88038095Y-78680952D01*
X88038095Y-78823809D01*
X87990476Y-79014285D01*
X87942857Y-79109523D01*
X87847619Y-79204761D01*
X87704761Y-79252380D01*
X87466666Y-79252380D01*
X88466666Y-79252380D02*
X88466666Y-78252380D01*
X88704761Y-78252380D01*
X88847619Y-78300000D01*
X88942857Y-78395238D01*
X88990476Y-78490476D01*
X89038095Y-78680952D01*
X89038095Y-78823809D01*
X88990476Y-79014285D01*
X88942857Y-79109523D01*
X88847619Y-79204761D01*
X88704761Y-79252380D01*
X88466666Y-79252380D01*
X86838095Y-75700000D02*
X86742857Y-75652380D01*
X86600000Y-75652380D01*
X86457142Y-75700000D01*
X86361904Y-75795238D01*
X86314285Y-75890476D01*
X86266666Y-76080952D01*
X86266666Y-76223809D01*
X86314285Y-76414285D01*
X86361904Y-76509523D01*
X86457142Y-76604761D01*
X86600000Y-76652380D01*
X86695238Y-76652380D01*
X86838095Y-76604761D01*
X86885714Y-76557142D01*
X86885714Y-76223809D01*
X86695238Y-76223809D01*
X87314285Y-76652380D02*
X87314285Y-75652380D01*
X87885714Y-76652380D01*
X87885714Y-75652380D01*
X88361904Y-76652380D02*
X88361904Y-75652380D01*
X88600000Y-75652380D01*
X88742857Y-75700000D01*
X88838095Y-75795238D01*
X88885714Y-75890476D01*
X88933333Y-76080952D01*
X88933333Y-76223809D01*
X88885714Y-76414285D01*
X88838095Y-76509523D01*
X88742857Y-76604761D01*
X88600000Y-76652380D01*
X88361904Y-76652380D01*
D11*
%TO.C,D5*%
X105650000Y-93600000D02*
X102350000Y-93600000D01*
X102350000Y-93600000D02*
X102350000Y-99000000D01*
X105650000Y-93600000D02*
X105650000Y-99000000D01*
%TO.C,D4*%
X98150000Y-100400000D02*
X101450000Y-100400000D01*
X101450000Y-100400000D02*
X101450000Y-95000000D01*
X98150000Y-100400000D02*
X98150000Y-95000000D01*
%TO.C,D1*%
X89600000Y-61950000D02*
X89600000Y-65250000D01*
X89600000Y-65250000D02*
X95000000Y-65250000D01*
X89600000Y-61950000D02*
X95000000Y-61950000D01*
%TO.C,U2*%
X104200000Y-89235000D02*
X106150000Y-89235000D01*
X104200000Y-89235000D02*
X102250000Y-89235000D01*
X104200000Y-80365000D02*
X106150000Y-80365000D01*
X104200000Y-80365000D02*
X100750000Y-80365000D01*
%TO.C,U1*%
X105910000Y-74010000D02*
X105910000Y-72750000D01*
X105910000Y-67190000D02*
X105910000Y-68450000D01*
X102150000Y-74010000D02*
X105910000Y-74010000D01*
X99900000Y-67190000D02*
X105910000Y-67190000D01*
%TO.C,R5*%
X108437258Y-99922500D02*
X107962742Y-99922500D01*
X108437258Y-98877500D02*
X107962742Y-98877500D01*
%TO.C,R4*%
X107962742Y-66477500D02*
X108437258Y-66477500D01*
X107962742Y-67522500D02*
X108437258Y-67522500D01*
%TO.C,R3*%
X98922500Y-66962742D02*
X98922500Y-67437258D01*
X97877500Y-66962742D02*
X97877500Y-67437258D01*
%TO.C,R2*%
X111237258Y-69522500D02*
X110762742Y-69522500D01*
X111237258Y-68477500D02*
X110762742Y-68477500D01*
%TO.C,R1*%
X98322500Y-81162742D02*
X98322500Y-81637258D01*
X97277500Y-81162742D02*
X97277500Y-81637258D01*
%TO.C,J5*%
X117670000Y-77270000D02*
X120330000Y-77270000D01*
X117670000Y-77270000D02*
X117670000Y-95110000D01*
X117670000Y-95110000D02*
X120330000Y-95110000D01*
X120330000Y-77270000D02*
X120330000Y-95110000D01*
X120330000Y-74670000D02*
X120330000Y-76000000D01*
X119000000Y-74670000D02*
X120330000Y-74670000D01*
%TO.C,J4*%
X113230000Y-106330000D02*
X113230000Y-103670000D01*
X100470000Y-106330000D02*
X113230000Y-106330000D01*
X100470000Y-103670000D02*
X113230000Y-103670000D01*
X100470000Y-106330000D02*
X100470000Y-103670000D01*
X99200000Y-106330000D02*
X97870000Y-106330000D01*
X97870000Y-106330000D02*
X97870000Y-105000000D01*
%TO.C,J3*%
X89670000Y-77470000D02*
X92330000Y-77470000D01*
X89670000Y-77470000D02*
X89670000Y-95310000D01*
X89670000Y-95310000D02*
X92330000Y-95310000D01*
X92330000Y-77470000D02*
X92330000Y-95310000D01*
X92330000Y-74870000D02*
X92330000Y-76200000D01*
X91000000Y-74870000D02*
X92330000Y-74870000D01*
%TO.C,J2*%
X92330000Y-98590000D02*
X89670000Y-98590000D01*
X92330000Y-103730000D02*
X92330000Y-98590000D01*
X89670000Y-103730000D02*
X89670000Y-98590000D01*
X92330000Y-103730000D02*
X89670000Y-103730000D01*
X92330000Y-105000000D02*
X92330000Y-106330000D01*
X92330000Y-106330000D02*
X91000000Y-106330000D01*
%TO.C,J1*%
X109550000Y-64930000D02*
X109550000Y-62270000D01*
X101870000Y-64930000D02*
X109550000Y-64930000D01*
X101870000Y-62270000D02*
X109550000Y-62270000D01*
X101870000Y-64930000D02*
X101870000Y-62270000D01*
X100600000Y-64930000D02*
X99270000Y-64930000D01*
X99270000Y-64930000D02*
X99270000Y-63600000D01*
%TO.C,D3*%
X113800000Y-69760000D02*
X116485000Y-69760000D01*
X116485000Y-69760000D02*
X116485000Y-67840000D01*
X116485000Y-67840000D02*
X113800000Y-67840000D01*
%TO.C,D2*%
X98760000Y-78800000D02*
X98760000Y-76115000D01*
X98760000Y-76115000D02*
X96840000Y-76115000D01*
X96840000Y-76115000D02*
X96840000Y-78800000D01*
%TO.C,C3*%
X115020000Y-73200000D02*
G75*
G03*
X115020000Y-73200000I-2620000J0D01*
G01*
X112400000Y-74240000D02*
X112400000Y-75780000D01*
X112400000Y-70620000D02*
X112400000Y-72160000D01*
X112440000Y-74240000D02*
X112440000Y-75780000D01*
X112440000Y-70620000D02*
X112440000Y-72160000D01*
X112480000Y-70621000D02*
X112480000Y-72160000D01*
X112480000Y-74240000D02*
X112480000Y-75779000D01*
X112520000Y-70622000D02*
X112520000Y-72160000D01*
X112520000Y-74240000D02*
X112520000Y-75778000D01*
X112560000Y-70624000D02*
X112560000Y-72160000D01*
X112560000Y-74240000D02*
X112560000Y-75776000D01*
X112600000Y-70627000D02*
X112600000Y-72160000D01*
X112600000Y-74240000D02*
X112600000Y-75773000D01*
X112640000Y-70631000D02*
X112640000Y-72160000D01*
X112640000Y-74240000D02*
X112640000Y-75769000D01*
X112680000Y-70635000D02*
X112680000Y-72160000D01*
X112680000Y-74240000D02*
X112680000Y-75765000D01*
X112720000Y-70639000D02*
X112720000Y-72160000D01*
X112720000Y-74240000D02*
X112720000Y-75761000D01*
X112760000Y-70644000D02*
X112760000Y-72160000D01*
X112760000Y-74240000D02*
X112760000Y-75756000D01*
X112800000Y-70650000D02*
X112800000Y-72160000D01*
X112800000Y-74240000D02*
X112800000Y-75750000D01*
X112840000Y-70657000D02*
X112840000Y-72160000D01*
X112840000Y-74240000D02*
X112840000Y-75743000D01*
X112880000Y-70664000D02*
X112880000Y-72160000D01*
X112880000Y-74240000D02*
X112880000Y-75736000D01*
X112920000Y-70672000D02*
X112920000Y-72160000D01*
X112920000Y-74240000D02*
X112920000Y-75728000D01*
X112960000Y-70680000D02*
X112960000Y-72160000D01*
X112960000Y-74240000D02*
X112960000Y-75720000D01*
X113000000Y-70689000D02*
X113000000Y-72160000D01*
X113000000Y-74240000D02*
X113000000Y-75711000D01*
X113040000Y-70699000D02*
X113040000Y-72160000D01*
X113040000Y-74240000D02*
X113040000Y-75701000D01*
X113080000Y-70709000D02*
X113080000Y-72160000D01*
X113080000Y-74240000D02*
X113080000Y-75691000D01*
X113121000Y-70720000D02*
X113121000Y-72160000D01*
X113121000Y-74240000D02*
X113121000Y-75680000D01*
X113161000Y-70732000D02*
X113161000Y-72160000D01*
X113161000Y-74240000D02*
X113161000Y-75668000D01*
X113201000Y-70745000D02*
X113201000Y-72160000D01*
X113201000Y-74240000D02*
X113201000Y-75655000D01*
X113241000Y-70758000D02*
X113241000Y-72160000D01*
X113241000Y-74240000D02*
X113241000Y-75642000D01*
X113281000Y-70772000D02*
X113281000Y-72160000D01*
X113281000Y-74240000D02*
X113281000Y-75628000D01*
X113321000Y-70786000D02*
X113321000Y-72160000D01*
X113321000Y-74240000D02*
X113321000Y-75614000D01*
X113361000Y-70802000D02*
X113361000Y-72160000D01*
X113361000Y-74240000D02*
X113361000Y-75598000D01*
X113401000Y-70818000D02*
X113401000Y-72160000D01*
X113401000Y-74240000D02*
X113401000Y-75582000D01*
X113441000Y-70835000D02*
X113441000Y-72160000D01*
X113441000Y-74240000D02*
X113441000Y-75565000D01*
X113481000Y-70852000D02*
X113481000Y-72160000D01*
X113481000Y-74240000D02*
X113481000Y-75548000D01*
X113521000Y-70871000D02*
X113521000Y-72160000D01*
X113521000Y-74240000D02*
X113521000Y-75529000D01*
X113561000Y-70890000D02*
X113561000Y-72160000D01*
X113561000Y-74240000D02*
X113561000Y-75510000D01*
X113601000Y-70910000D02*
X113601000Y-72160000D01*
X113601000Y-74240000D02*
X113601000Y-75490000D01*
X113641000Y-70932000D02*
X113641000Y-72160000D01*
X113641000Y-74240000D02*
X113641000Y-75468000D01*
X113681000Y-70953000D02*
X113681000Y-72160000D01*
X113681000Y-74240000D02*
X113681000Y-75447000D01*
X113721000Y-70976000D02*
X113721000Y-72160000D01*
X113721000Y-74240000D02*
X113721000Y-75424000D01*
X113761000Y-71000000D02*
X113761000Y-72160000D01*
X113761000Y-74240000D02*
X113761000Y-75400000D01*
X113801000Y-71025000D02*
X113801000Y-72160000D01*
X113801000Y-74240000D02*
X113801000Y-75375000D01*
X113841000Y-71051000D02*
X113841000Y-72160000D01*
X113841000Y-74240000D02*
X113841000Y-75349000D01*
X113881000Y-71078000D02*
X113881000Y-72160000D01*
X113881000Y-74240000D02*
X113881000Y-75322000D01*
X113921000Y-71105000D02*
X113921000Y-72160000D01*
X113921000Y-74240000D02*
X113921000Y-75295000D01*
X113961000Y-71135000D02*
X113961000Y-72160000D01*
X113961000Y-74240000D02*
X113961000Y-75265000D01*
X114001000Y-71165000D02*
X114001000Y-72160000D01*
X114001000Y-74240000D02*
X114001000Y-75235000D01*
X114041000Y-71196000D02*
X114041000Y-72160000D01*
X114041000Y-74240000D02*
X114041000Y-75204000D01*
X114081000Y-71229000D02*
X114081000Y-72160000D01*
X114081000Y-74240000D02*
X114081000Y-75171000D01*
X114121000Y-71263000D02*
X114121000Y-72160000D01*
X114121000Y-74240000D02*
X114121000Y-75137000D01*
X114161000Y-71299000D02*
X114161000Y-72160000D01*
X114161000Y-74240000D02*
X114161000Y-75101000D01*
X114201000Y-71336000D02*
X114201000Y-72160000D01*
X114201000Y-74240000D02*
X114201000Y-75064000D01*
X114241000Y-71374000D02*
X114241000Y-72160000D01*
X114241000Y-74240000D02*
X114241000Y-75026000D01*
X114281000Y-71415000D02*
X114281000Y-72160000D01*
X114281000Y-74240000D02*
X114281000Y-74985000D01*
X114321000Y-71457000D02*
X114321000Y-72160000D01*
X114321000Y-74240000D02*
X114321000Y-74943000D01*
X114361000Y-71501000D02*
X114361000Y-72160000D01*
X114361000Y-74240000D02*
X114361000Y-74899000D01*
X114401000Y-71547000D02*
X114401000Y-72160000D01*
X114401000Y-74240000D02*
X114401000Y-74853000D01*
X114441000Y-71595000D02*
X114441000Y-74805000D01*
X114481000Y-71646000D02*
X114481000Y-74754000D01*
X114521000Y-71700000D02*
X114521000Y-74700000D01*
X114561000Y-71757000D02*
X114561000Y-74643000D01*
X114601000Y-71817000D02*
X114601000Y-74583000D01*
X114641000Y-71881000D02*
X114641000Y-74519000D01*
X114681000Y-71949000D02*
X114681000Y-74451000D01*
X114721000Y-72022000D02*
X114721000Y-74378000D01*
X114761000Y-72102000D02*
X114761000Y-74298000D01*
X114801000Y-72189000D02*
X114801000Y-74211000D01*
X114841000Y-72285000D02*
X114841000Y-74115000D01*
X114881000Y-72395000D02*
X114881000Y-74005000D01*
X114921000Y-72523000D02*
X114921000Y-73877000D01*
X114961000Y-72682000D02*
X114961000Y-73718000D01*
X115001000Y-72916000D02*
X115001000Y-73484000D01*
X109595225Y-71725000D02*
X110095225Y-71725000D01*
X109845225Y-71475000D02*
X109845225Y-71975000D01*
%TO.C,C2*%
X98020000Y-71600000D02*
G75*
G03*
X98020000Y-71600000I-2620000J0D01*
G01*
X95400000Y-70560000D02*
X95400000Y-69020000D01*
X95400000Y-74180000D02*
X95400000Y-72640000D01*
X95360000Y-70560000D02*
X95360000Y-69020000D01*
X95360000Y-74180000D02*
X95360000Y-72640000D01*
X95320000Y-74179000D02*
X95320000Y-72640000D01*
X95320000Y-70560000D02*
X95320000Y-69021000D01*
X95280000Y-74178000D02*
X95280000Y-72640000D01*
X95280000Y-70560000D02*
X95280000Y-69022000D01*
X95240000Y-74176000D02*
X95240000Y-72640000D01*
X95240000Y-70560000D02*
X95240000Y-69024000D01*
X95200000Y-74173000D02*
X95200000Y-72640000D01*
X95200000Y-70560000D02*
X95200000Y-69027000D01*
X95160000Y-74169000D02*
X95160000Y-72640000D01*
X95160000Y-70560000D02*
X95160000Y-69031000D01*
X95120000Y-74165000D02*
X95120000Y-72640000D01*
X95120000Y-70560000D02*
X95120000Y-69035000D01*
X95080000Y-74161000D02*
X95080000Y-72640000D01*
X95080000Y-70560000D02*
X95080000Y-69039000D01*
X95040000Y-74156000D02*
X95040000Y-72640000D01*
X95040000Y-70560000D02*
X95040000Y-69044000D01*
X95000000Y-74150000D02*
X95000000Y-72640000D01*
X95000000Y-70560000D02*
X95000000Y-69050000D01*
X94960000Y-74143000D02*
X94960000Y-72640000D01*
X94960000Y-70560000D02*
X94960000Y-69057000D01*
X94920000Y-74136000D02*
X94920000Y-72640000D01*
X94920000Y-70560000D02*
X94920000Y-69064000D01*
X94880000Y-74128000D02*
X94880000Y-72640000D01*
X94880000Y-70560000D02*
X94880000Y-69072000D01*
X94840000Y-74120000D02*
X94840000Y-72640000D01*
X94840000Y-70560000D02*
X94840000Y-69080000D01*
X94800000Y-74111000D02*
X94800000Y-72640000D01*
X94800000Y-70560000D02*
X94800000Y-69089000D01*
X94760000Y-74101000D02*
X94760000Y-72640000D01*
X94760000Y-70560000D02*
X94760000Y-69099000D01*
X94720000Y-74091000D02*
X94720000Y-72640000D01*
X94720000Y-70560000D02*
X94720000Y-69109000D01*
X94679000Y-74080000D02*
X94679000Y-72640000D01*
X94679000Y-70560000D02*
X94679000Y-69120000D01*
X94639000Y-74068000D02*
X94639000Y-72640000D01*
X94639000Y-70560000D02*
X94639000Y-69132000D01*
X94599000Y-74055000D02*
X94599000Y-72640000D01*
X94599000Y-70560000D02*
X94599000Y-69145000D01*
X94559000Y-74042000D02*
X94559000Y-72640000D01*
X94559000Y-70560000D02*
X94559000Y-69158000D01*
X94519000Y-74028000D02*
X94519000Y-72640000D01*
X94519000Y-70560000D02*
X94519000Y-69172000D01*
X94479000Y-74014000D02*
X94479000Y-72640000D01*
X94479000Y-70560000D02*
X94479000Y-69186000D01*
X94439000Y-73998000D02*
X94439000Y-72640000D01*
X94439000Y-70560000D02*
X94439000Y-69202000D01*
X94399000Y-73982000D02*
X94399000Y-72640000D01*
X94399000Y-70560000D02*
X94399000Y-69218000D01*
X94359000Y-73965000D02*
X94359000Y-72640000D01*
X94359000Y-70560000D02*
X94359000Y-69235000D01*
X94319000Y-73948000D02*
X94319000Y-72640000D01*
X94319000Y-70560000D02*
X94319000Y-69252000D01*
X94279000Y-73929000D02*
X94279000Y-72640000D01*
X94279000Y-70560000D02*
X94279000Y-69271000D01*
X94239000Y-73910000D02*
X94239000Y-72640000D01*
X94239000Y-70560000D02*
X94239000Y-69290000D01*
X94199000Y-73890000D02*
X94199000Y-72640000D01*
X94199000Y-70560000D02*
X94199000Y-69310000D01*
X94159000Y-73868000D02*
X94159000Y-72640000D01*
X94159000Y-70560000D02*
X94159000Y-69332000D01*
X94119000Y-73847000D02*
X94119000Y-72640000D01*
X94119000Y-70560000D02*
X94119000Y-69353000D01*
X94079000Y-73824000D02*
X94079000Y-72640000D01*
X94079000Y-70560000D02*
X94079000Y-69376000D01*
X94039000Y-73800000D02*
X94039000Y-72640000D01*
X94039000Y-70560000D02*
X94039000Y-69400000D01*
X93999000Y-73775000D02*
X93999000Y-72640000D01*
X93999000Y-70560000D02*
X93999000Y-69425000D01*
X93959000Y-73749000D02*
X93959000Y-72640000D01*
X93959000Y-70560000D02*
X93959000Y-69451000D01*
X93919000Y-73722000D02*
X93919000Y-72640000D01*
X93919000Y-70560000D02*
X93919000Y-69478000D01*
X93879000Y-73695000D02*
X93879000Y-72640000D01*
X93879000Y-70560000D02*
X93879000Y-69505000D01*
X93839000Y-73665000D02*
X93839000Y-72640000D01*
X93839000Y-70560000D02*
X93839000Y-69535000D01*
X93799000Y-73635000D02*
X93799000Y-72640000D01*
X93799000Y-70560000D02*
X93799000Y-69565000D01*
X93759000Y-73604000D02*
X93759000Y-72640000D01*
X93759000Y-70560000D02*
X93759000Y-69596000D01*
X93719000Y-73571000D02*
X93719000Y-72640000D01*
X93719000Y-70560000D02*
X93719000Y-69629000D01*
X93679000Y-73537000D02*
X93679000Y-72640000D01*
X93679000Y-70560000D02*
X93679000Y-69663000D01*
X93639000Y-73501000D02*
X93639000Y-72640000D01*
X93639000Y-70560000D02*
X93639000Y-69699000D01*
X93599000Y-73464000D02*
X93599000Y-72640000D01*
X93599000Y-70560000D02*
X93599000Y-69736000D01*
X93559000Y-73426000D02*
X93559000Y-72640000D01*
X93559000Y-70560000D02*
X93559000Y-69774000D01*
X93519000Y-73385000D02*
X93519000Y-72640000D01*
X93519000Y-70560000D02*
X93519000Y-69815000D01*
X93479000Y-73343000D02*
X93479000Y-72640000D01*
X93479000Y-70560000D02*
X93479000Y-69857000D01*
X93439000Y-73299000D02*
X93439000Y-72640000D01*
X93439000Y-70560000D02*
X93439000Y-69901000D01*
X93399000Y-73253000D02*
X93399000Y-72640000D01*
X93399000Y-70560000D02*
X93399000Y-69947000D01*
X93359000Y-73205000D02*
X93359000Y-69995000D01*
X93319000Y-73154000D02*
X93319000Y-70046000D01*
X93279000Y-73100000D02*
X93279000Y-70100000D01*
X93239000Y-73043000D02*
X93239000Y-70157000D01*
X93199000Y-72983000D02*
X93199000Y-70217000D01*
X93159000Y-72919000D02*
X93159000Y-70281000D01*
X93119000Y-72851000D02*
X93119000Y-70349000D01*
X93079000Y-72778000D02*
X93079000Y-70422000D01*
X93039000Y-72698000D02*
X93039000Y-70502000D01*
X92999000Y-72611000D02*
X92999000Y-70589000D01*
X92959000Y-72515000D02*
X92959000Y-70685000D01*
X92919000Y-72405000D02*
X92919000Y-70795000D01*
X92879000Y-72277000D02*
X92879000Y-70923000D01*
X92839000Y-72118000D02*
X92839000Y-71082000D01*
X92799000Y-71884000D02*
X92799000Y-71316000D01*
X98204775Y-73075000D02*
X97704775Y-73075000D01*
X97954775Y-73325000D02*
X97954775Y-72825000D01*
%TO.C,C1*%
X103859420Y-78090000D02*
X104140580Y-78090000D01*
X103859420Y-79110000D02*
X104140580Y-79110000D01*
%TO.C,D5*%
D10*
X106952380Y-97738095D02*
X105952380Y-97738095D01*
X105952380Y-97500000D01*
X106000000Y-97357142D01*
X106095238Y-97261904D01*
X106190476Y-97214285D01*
X106380952Y-97166666D01*
X106523809Y-97166666D01*
X106714285Y-97214285D01*
X106809523Y-97261904D01*
X106904761Y-97357142D01*
X106952380Y-97500000D01*
X106952380Y-97738095D01*
X105952380Y-96261904D02*
X105952380Y-96738095D01*
X106428571Y-96785714D01*
X106380952Y-96738095D01*
X106333333Y-96642857D01*
X106333333Y-96404761D01*
X106380952Y-96309523D01*
X106428571Y-96261904D01*
X106523809Y-96214285D01*
X106761904Y-96214285D01*
X106857142Y-96261904D01*
X106904761Y-96309523D01*
X106952380Y-96404761D01*
X106952380Y-96642857D01*
X106904761Y-96738095D01*
X106857142Y-96785714D01*
%TO.C,D4*%
X97752380Y-97738095D02*
X96752380Y-97738095D01*
X96752380Y-97500000D01*
X96800000Y-97357142D01*
X96895238Y-97261904D01*
X96990476Y-97214285D01*
X97180952Y-97166666D01*
X97323809Y-97166666D01*
X97514285Y-97214285D01*
X97609523Y-97261904D01*
X97704761Y-97357142D01*
X97752380Y-97500000D01*
X97752380Y-97738095D01*
X97085714Y-96309523D02*
X97752380Y-96309523D01*
X96704761Y-96547619D02*
X97419047Y-96785714D01*
X97419047Y-96166666D01*
%TO.C,D1*%
X92261904Y-61552380D02*
X92261904Y-60552380D01*
X92500000Y-60552380D01*
X92642857Y-60600000D01*
X92738095Y-60695238D01*
X92785714Y-60790476D01*
X92833333Y-60980952D01*
X92833333Y-61123809D01*
X92785714Y-61314285D01*
X92738095Y-61409523D01*
X92642857Y-61504761D01*
X92500000Y-61552380D01*
X92261904Y-61552380D01*
X93785714Y-61552380D02*
X93214285Y-61552380D01*
X93500000Y-61552380D02*
X93500000Y-60552380D01*
X93404761Y-60695238D01*
X93309523Y-60790476D01*
X93214285Y-60838095D01*
%TO.C,U2*%
X108238095Y-80452380D02*
X108238095Y-81261904D01*
X108285714Y-81357142D01*
X108333333Y-81404761D01*
X108428571Y-81452380D01*
X108619047Y-81452380D01*
X108714285Y-81404761D01*
X108761904Y-81357142D01*
X108809523Y-81261904D01*
X108809523Y-80452380D01*
X109238095Y-80547619D02*
X109285714Y-80500000D01*
X109380952Y-80452380D01*
X109619047Y-80452380D01*
X109714285Y-80500000D01*
X109761904Y-80547619D01*
X109809523Y-80642857D01*
X109809523Y-80738095D01*
X109761904Y-80880952D01*
X109190476Y-81452380D01*
X109809523Y-81452380D01*
%TO.C,U1*%
X106438095Y-73652380D02*
X106438095Y-74461904D01*
X106485714Y-74557142D01*
X106533333Y-74604761D01*
X106628571Y-74652380D01*
X106819047Y-74652380D01*
X106914285Y-74604761D01*
X106961904Y-74557142D01*
X107009523Y-74461904D01*
X107009523Y-73652380D01*
X108009523Y-74652380D02*
X107438095Y-74652380D01*
X107723809Y-74652380D02*
X107723809Y-73652380D01*
X107628571Y-73795238D01*
X107533333Y-73890476D01*
X107438095Y-73938095D01*
%TO.C,R5*%
X108033333Y-98452380D02*
X107700000Y-97976190D01*
X107461904Y-98452380D02*
X107461904Y-97452380D01*
X107842857Y-97452380D01*
X107938095Y-97500000D01*
X107985714Y-97547619D01*
X108033333Y-97642857D01*
X108033333Y-97785714D01*
X107985714Y-97880952D01*
X107938095Y-97928571D01*
X107842857Y-97976190D01*
X107461904Y-97976190D01*
X108938095Y-97452380D02*
X108461904Y-97452380D01*
X108414285Y-97928571D01*
X108461904Y-97880952D01*
X108557142Y-97833333D01*
X108795238Y-97833333D01*
X108890476Y-97880952D01*
X108938095Y-97928571D01*
X108985714Y-98023809D01*
X108985714Y-98261904D01*
X108938095Y-98357142D01*
X108890476Y-98404761D01*
X108795238Y-98452380D01*
X108557142Y-98452380D01*
X108461904Y-98404761D01*
X108414285Y-98357142D01*
%TO.C,R4*%
X110633333Y-67452380D02*
X110300000Y-66976190D01*
X110061904Y-67452380D02*
X110061904Y-66452380D01*
X110442857Y-66452380D01*
X110538095Y-66500000D01*
X110585714Y-66547619D01*
X110633333Y-66642857D01*
X110633333Y-66785714D01*
X110585714Y-66880952D01*
X110538095Y-66928571D01*
X110442857Y-66976190D01*
X110061904Y-66976190D01*
X111490476Y-66785714D02*
X111490476Y-67452380D01*
X111252380Y-66404761D02*
X111014285Y-67119047D01*
X111633333Y-67119047D01*
%TO.C,R3*%
X97452380Y-67366666D02*
X96976190Y-67700000D01*
X97452380Y-67938095D02*
X96452380Y-67938095D01*
X96452380Y-67557142D01*
X96500000Y-67461904D01*
X96547619Y-67414285D01*
X96642857Y-67366666D01*
X96785714Y-67366666D01*
X96880952Y-67414285D01*
X96928571Y-67461904D01*
X96976190Y-67557142D01*
X96976190Y-67938095D01*
X96452380Y-67033333D02*
X96452380Y-66414285D01*
X96833333Y-66747619D01*
X96833333Y-66604761D01*
X96880952Y-66509523D01*
X96928571Y-66461904D01*
X97023809Y-66414285D01*
X97261904Y-66414285D01*
X97357142Y-66461904D01*
X97404761Y-66509523D01*
X97452380Y-66604761D01*
X97452380Y-66890476D01*
X97404761Y-66985714D01*
X97357142Y-67033333D01*
%TO.C,R2*%
X110833333Y-68052380D02*
X110500000Y-67576190D01*
X110261904Y-68052380D02*
X110261904Y-67052380D01*
X110642857Y-67052380D01*
X110738095Y-67100000D01*
X110785714Y-67147619D01*
X110833333Y-67242857D01*
X110833333Y-67385714D01*
X110785714Y-67480952D01*
X110738095Y-67528571D01*
X110642857Y-67576190D01*
X110261904Y-67576190D01*
X111214285Y-67147619D02*
X111261904Y-67100000D01*
X111357142Y-67052380D01*
X111595238Y-67052380D01*
X111690476Y-67100000D01*
X111738095Y-67147619D01*
X111785714Y-67242857D01*
X111785714Y-67338095D01*
X111738095Y-67480952D01*
X111166666Y-68052380D01*
X111785714Y-68052380D01*
%TO.C,R1*%
X99682380Y-81566666D02*
X99206190Y-81900000D01*
X99682380Y-82138095D02*
X98682380Y-82138095D01*
X98682380Y-81757142D01*
X98730000Y-81661904D01*
X98777619Y-81614285D01*
X98872857Y-81566666D01*
X99015714Y-81566666D01*
X99110952Y-81614285D01*
X99158571Y-81661904D01*
X99206190Y-81757142D01*
X99206190Y-82138095D01*
X99682380Y-80614285D02*
X99682380Y-81185714D01*
X99682380Y-80900000D02*
X98682380Y-80900000D01*
X98825238Y-80995238D01*
X98920476Y-81090476D01*
X98968095Y-81185714D01*
%TO.C,J5*%
X118666666Y-72682380D02*
X118666666Y-73396666D01*
X118619047Y-73539523D01*
X118523809Y-73634761D01*
X118380952Y-73682380D01*
X118285714Y-73682380D01*
X119619047Y-72682380D02*
X119142857Y-72682380D01*
X119095238Y-73158571D01*
X119142857Y-73110952D01*
X119238095Y-73063333D01*
X119476190Y-73063333D01*
X119571428Y-73110952D01*
X119619047Y-73158571D01*
X119666666Y-73253809D01*
X119666666Y-73491904D01*
X119619047Y-73587142D01*
X119571428Y-73634761D01*
X119476190Y-73682380D01*
X119238095Y-73682380D01*
X119142857Y-73634761D01*
X119095238Y-73587142D01*
%TO.C,J4*%
X96322380Y-105333333D02*
X97036666Y-105333333D01*
X97179523Y-105380952D01*
X97274761Y-105476190D01*
X97322380Y-105619047D01*
X97322380Y-105714285D01*
X96655714Y-104428571D02*
X97322380Y-104428571D01*
X96274761Y-104666666D02*
X96989047Y-104904761D01*
X96989047Y-104285714D01*
%TO.C,J3*%
X90666666Y-72882380D02*
X90666666Y-73596666D01*
X90619047Y-73739523D01*
X90523809Y-73834761D01*
X90380952Y-73882380D01*
X90285714Y-73882380D01*
X91047619Y-72882380D02*
X91666666Y-72882380D01*
X91333333Y-73263333D01*
X91476190Y-73263333D01*
X91571428Y-73310952D01*
X91619047Y-73358571D01*
X91666666Y-73453809D01*
X91666666Y-73691904D01*
X91619047Y-73787142D01*
X91571428Y-73834761D01*
X91476190Y-73882380D01*
X91190476Y-73882380D01*
X91095238Y-73834761D01*
X91047619Y-73787142D01*
%TO.C,J2*%
X91066666Y-96852380D02*
X91066666Y-97566666D01*
X91019047Y-97709523D01*
X90923809Y-97804761D01*
X90780952Y-97852380D01*
X90685714Y-97852380D01*
X91495238Y-96947619D02*
X91542857Y-96900000D01*
X91638095Y-96852380D01*
X91876190Y-96852380D01*
X91971428Y-96900000D01*
X92019047Y-96947619D01*
X92066666Y-97042857D01*
X92066666Y-97138095D01*
X92019047Y-97280952D01*
X91447619Y-97852380D01*
X92066666Y-97852380D01*
%TO.C,J1*%
X110452380Y-63933333D02*
X111166666Y-63933333D01*
X111309523Y-63980952D01*
X111404761Y-64076190D01*
X111452380Y-64219047D01*
X111452380Y-64314285D01*
X111452380Y-62933333D02*
X111452380Y-63504761D01*
X111452380Y-63219047D02*
X110452380Y-63219047D01*
X110595238Y-63314285D01*
X110690476Y-63409523D01*
X110738095Y-63504761D01*
%TO.C,D3*%
X114061904Y-67452380D02*
X114061904Y-66452380D01*
X114300000Y-66452380D01*
X114442857Y-66500000D01*
X114538095Y-66595238D01*
X114585714Y-66690476D01*
X114633333Y-66880952D01*
X114633333Y-67023809D01*
X114585714Y-67214285D01*
X114538095Y-67309523D01*
X114442857Y-67404761D01*
X114300000Y-67452380D01*
X114061904Y-67452380D01*
X114966666Y-66452380D02*
X115585714Y-66452380D01*
X115252380Y-66833333D01*
X115395238Y-66833333D01*
X115490476Y-66880952D01*
X115538095Y-66928571D01*
X115585714Y-67023809D01*
X115585714Y-67261904D01*
X115538095Y-67357142D01*
X115490476Y-67404761D01*
X115395238Y-67452380D01*
X115109523Y-67452380D01*
X115014285Y-67404761D01*
X114966666Y-67357142D01*
%TO.C,D2*%
X100052380Y-79538095D02*
X99052380Y-79538095D01*
X99052380Y-79300000D01*
X99100000Y-79157142D01*
X99195238Y-79061904D01*
X99290476Y-79014285D01*
X99480952Y-78966666D01*
X99623809Y-78966666D01*
X99814285Y-79014285D01*
X99909523Y-79061904D01*
X100004761Y-79157142D01*
X100052380Y-79300000D01*
X100052380Y-79538095D01*
X99147619Y-78585714D02*
X99100000Y-78538095D01*
X99052380Y-78442857D01*
X99052380Y-78204761D01*
X99100000Y-78109523D01*
X99147619Y-78061904D01*
X99242857Y-78014285D01*
X99338095Y-78014285D01*
X99480952Y-78061904D01*
X100052380Y-78633333D01*
X100052380Y-78014285D01*
%TO.C,C3*%
X111833333Y-77357142D02*
X111785714Y-77404761D01*
X111642857Y-77452380D01*
X111547619Y-77452380D01*
X111404761Y-77404761D01*
X111309523Y-77309523D01*
X111261904Y-77214285D01*
X111214285Y-77023809D01*
X111214285Y-76880952D01*
X111261904Y-76690476D01*
X111309523Y-76595238D01*
X111404761Y-76500000D01*
X111547619Y-76452380D01*
X111642857Y-76452380D01*
X111785714Y-76500000D01*
X111833333Y-76547619D01*
X112166666Y-76452380D02*
X112785714Y-76452380D01*
X112452380Y-76833333D01*
X112595238Y-76833333D01*
X112690476Y-76880952D01*
X112738095Y-76928571D01*
X112785714Y-77023809D01*
X112785714Y-77261904D01*
X112738095Y-77357142D01*
X112690476Y-77404761D01*
X112595238Y-77452380D01*
X112309523Y-77452380D01*
X112214285Y-77404761D01*
X112166666Y-77357142D01*
%TO.C,C2*%
X95233333Y-75707142D02*
X95185714Y-75754761D01*
X95042857Y-75802380D01*
X94947619Y-75802380D01*
X94804761Y-75754761D01*
X94709523Y-75659523D01*
X94661904Y-75564285D01*
X94614285Y-75373809D01*
X94614285Y-75230952D01*
X94661904Y-75040476D01*
X94709523Y-74945238D01*
X94804761Y-74850000D01*
X94947619Y-74802380D01*
X95042857Y-74802380D01*
X95185714Y-74850000D01*
X95233333Y-74897619D01*
X95614285Y-74897619D02*
X95661904Y-74850000D01*
X95757142Y-74802380D01*
X95995238Y-74802380D01*
X96090476Y-74850000D01*
X96138095Y-74897619D01*
X96185714Y-74992857D01*
X96185714Y-75088095D01*
X96138095Y-75230952D01*
X95566666Y-75802380D01*
X96185714Y-75802380D01*
%TO.C,C1*%
X106433333Y-78557142D02*
X106385714Y-78604761D01*
X106242857Y-78652380D01*
X106147619Y-78652380D01*
X106004761Y-78604761D01*
X105909523Y-78509523D01*
X105861904Y-78414285D01*
X105814285Y-78223809D01*
X105814285Y-78080952D01*
X105861904Y-77890476D01*
X105909523Y-77795238D01*
X106004761Y-77700000D01*
X106147619Y-77652380D01*
X106242857Y-77652380D01*
X106385714Y-77700000D01*
X106433333Y-77747619D01*
X107385714Y-78652380D02*
X106814285Y-78652380D01*
X107100000Y-78652380D02*
X107100000Y-77652380D01*
X107004761Y-77795238D01*
X106909523Y-77890476D01*
X106814285Y-77938095D01*
%TD*%
M02*
