M48
; DRILL file {KiCad 5.1.9-73d0e3b20d~88~ubuntu20.04.1} date Sat Feb 20 23:14:00 2021
; FORMAT={-:-/ absolute / inch / decimal}
; #@! TF.CreationDate,2021-02-20T23:14:00+01:00
; #@! TF.GenerationSoftware,Kicad,Pcbnew,5.1.9-73d0e3b20d~88~ubuntu20.04.1
; #@! TF.FileFunction,Plated,1,2,PTH
FMAT,2
INCH
T1C0.0157
T2C0.0315
T3C0.0394
%
G90
G05
T1
X3.2441Y-2.9685
X3.2598Y-3.4567
X3.2677Y-3.8189
X3.9134Y-3.0315
X4.1575Y-3.1496
X4.6142Y-2.7087
X4.9921Y-2.8819
X5.0079Y-3.3858
X5.0079Y-3.8031
T2
X3.7165Y-2.8189
X3.7953Y-2.8189
X4.3858Y-2.8819
X4.4646Y-2.8819
T3
X3.5827Y-3.0
X3.5827Y-3.1
X3.5827Y-3.2
X3.5827Y-3.3
X3.5827Y-3.4
X3.5827Y-3.5
X3.5827Y-3.6
X3.5827Y-3.7
X3.5827Y-3.9339
X3.5827Y-4.0339
X3.5827Y-4.1339
X3.9055Y-4.1339
X3.9606Y-2.5039
X4.0055Y-4.1339
X4.0606Y-2.5039
X4.1055Y-4.1339
X4.1606Y-2.5039
X4.2055Y-4.1339
X4.2606Y-2.5039
X4.3055Y-4.1339
X4.4055Y-4.1339
X4.685Y-2.9921
X4.685Y-3.0921
X4.685Y-3.1921
X4.685Y-3.2921
X4.685Y-3.3921
X4.685Y-3.4921
X4.685Y-3.5921
X4.685Y-3.6921
T0
M30
